<mxfile host="Electron" agent="Mozilla/5.0 (Windows NT 10.0; Win64; x64) AppleWebKit/537.36 (KHTML, like Gecko) draw.io/26.2.2 Chrome/134.0.6998.178 Electron/35.1.2 Safari/537.36" version="26.2.2" pages="4">
  <diagram id="SCwRtNh7m2jCLs4KmN4t" name="manifest-atom">
    <mxGraphModel dx="4448" dy="3780" grid="1" gridSize="10" guides="1" tooltips="1" connect="1" arrows="1" fold="1" page="1" pageScale="1" pageWidth="1100" pageHeight="850" math="0" shadow="0">
      <root>
        <mxCell id="0" />
        <mxCell id="1" parent="0" />
        <mxCell id="JB4W--CDRO3y1J96a5zg-1" value="&lt;b&gt;lgirdk&lt;/b&gt;&lt;div&gt;&lt;br&gt;&lt;div&gt;github.com/lgirdk&lt;/div&gt;&lt;/div&gt;" style="rounded=1;whiteSpace=wrap;html=1;verticalAlign=top;strokeWidth=5;fillColor=#fff2cc;strokeColor=#d6b656;fontColor=light-dark(#dec26e, #ededed);" parent="1" vertex="1">
          <mxGeometry x="-590" y="-2415" width="120" height="80" as="geometry" />
        </mxCell>
        <mxCell id="JB4W--CDRO3y1J96a5zg-3" value="&lt;b&gt;upc-rmc&lt;/b&gt;&lt;div&gt;(Comcast repo mirror)&lt;/div&gt;&lt;div&gt;&lt;br&gt;&lt;div&gt;&lt;div&gt;bitbucket/rmc (&lt;span style=&quot;background-color: transparent;&quot;&gt;rdkb-2022q1-dunfell)&lt;/span&gt;&lt;/div&gt;&lt;/div&gt;&lt;/div&gt;" style="rounded=1;whiteSpace=wrap;html=1;verticalAlign=top;strokeWidth=5;fillColor=#d5e8d4;strokeColor=#82b366;fontColor=light-dark(#82b366, #ededed);" parent="1" vertex="1">
          <mxGeometry x="-1440" y="-2415" width="210" height="80" as="geometry" />
        </mxCell>
        <mxCell id="JB4W--CDRO3y1J96a5zg-4" value="&lt;b&gt;upc-rmi&lt;/b&gt;&lt;div&gt;(Intel/Mxl repo mirror)&lt;div&gt;&lt;br&gt;&lt;div&gt;bitbucket/rmi (&lt;span style=&quot;background-color: transparent;&quot;&gt;refs/tags/R7.3.5.3.521_MR)&lt;/span&gt;&lt;/div&gt;&lt;/div&gt;&lt;/div&gt;" style="rounded=1;whiteSpace=wrap;html=1;verticalAlign=top;strokeWidth=5;fillColor=#dae8fc;strokeColor=#6c8ebf;fontColor=light-dark(#6c8ebf, #ededed);" parent="1" vertex="1">
          <mxGeometry x="-2130" y="-2415" width="630" height="80" as="geometry" />
        </mxCell>
        <mxCell id="JB4W--CDRO3y1J96a5zg-5" value="&lt;b&gt;cmf&lt;/b&gt;&lt;div&gt;&lt;br&gt;&lt;div&gt;rdkcentral (&lt;span style=&quot;background-color: transparent;&quot;&gt;rdkb-2022q1-dunfell)&lt;/span&gt;&lt;/div&gt;&lt;/div&gt;" style="rounded=1;whiteSpace=wrap;html=1;verticalAlign=top;strokeWidth=5;fillColor=#d5e8d4;strokeColor=#82b366;fontColor=light-dark(#82b366, #ededed);" parent="1" vertex="1">
          <mxGeometry x="-1220" y="-2415" width="400" height="80" as="geometry" />
        </mxCell>
        <mxCell id="JB4W--CDRO3y1J96a5zg-7" value="&lt;b&gt;inango&lt;/b&gt;&lt;br&gt;&lt;div&gt;&lt;br&gt;&lt;div&gt;github/InangoSystems&lt;/div&gt;&lt;/div&gt;&lt;div&gt;&lt;br&gt;&lt;/div&gt;" style="rounded=1;whiteSpace=wrap;html=1;verticalAlign=top;strokeWidth=5;fillColor=#ffe6cc;strokeColor=#d79b00;fontColor=light-dark(#d79b00, #ededed);" parent="1" vertex="1">
          <mxGeometry x="-760" y="-2415" width="130" height="80" as="geometry" />
        </mxCell>
        <mxCell id="ZiwmfGuqBUQpRH041LdQ-8" value="" style="edgeStyle=orthogonalEdgeStyle;rounded=0;orthogonalLoop=1;jettySize=auto;html=1;fillColor=#fff2cc;strokeColor=#d6b656;strokeWidth=2;" edge="1" parent="1" source="JB4W--CDRO3y1J96a5zg-8" target="viVxv3WKHKFQd3w1aEIA-5">
          <mxGeometry relative="1" as="geometry">
            <mxPoint x="-530" y="-2155" as="targetPoint" />
            <Array as="points">
              <mxPoint x="-530" y="-1650" />
            </Array>
          </mxGeometry>
        </mxCell>
        <mxCell id="JB4W--CDRO3y1J96a5zg-8" value="&lt;div&gt;&lt;b&gt;metadata&lt;/b&gt;&lt;/div&gt;&lt;div&gt;&lt;br&gt;&lt;/div&gt;&lt;div style=&quot;text-align: left;&quot;&gt;&lt;span style=&quot;background-color: transparent;&quot;&gt;meta-gplv2/&lt;/span&gt;&lt;/div&gt;&lt;div style=&quot;text-align: left;&quot;&gt;meta-intel/&lt;/div&gt;" style="rounded=1;whiteSpace=wrap;html=1;verticalAlign=top;fillColor=#fff2cc;strokeColor=#d6b656;strokeWidth=3;fontColor=light-dark(#dec26e, #ededed);" parent="1" vertex="1">
          <mxGeometry x="-590" y="-2300" width="120" height="70" as="geometry" />
        </mxCell>
        <mxCell id="klQg9qCdkzRp1WcOre41-2" value="" style="edgeStyle=orthogonalEdgeStyle;rounded=0;orthogonalLoop=1;jettySize=auto;html=1;startArrow=none;startFill=0;endArrow=none;fillColor=#dae8fc;strokeColor=#6c8ebf;strokeWidth=3;fontColor=light-dark(#6c8ebf, #ededed);" edge="1" parent="1" source="JB4W--CDRO3y1J96a5zg-9" target="JB4W--CDRO3y1J96a5zg-4">
          <mxGeometry relative="1" as="geometry">
            <Array as="points">
              <mxPoint x="-2030" y="-2315" />
              <mxPoint x="-2030" y="-2315" />
            </Array>
          </mxGeometry>
        </mxCell>
        <mxCell id="ZiwmfGuqBUQpRH041LdQ-2" value="" style="edgeStyle=orthogonalEdgeStyle;rounded=0;orthogonalLoop=1;jettySize=auto;html=1;fillColor=#dae8fc;strokeColor=#6c8ebf;strokeWidth=2;" edge="1" parent="1" source="JB4W--CDRO3y1J96a5zg-9" target="viVxv3WKHKFQd3w1aEIA-5">
          <mxGeometry relative="1" as="geometry">
            <mxPoint x="-2030" y="-1920" as="targetPoint" />
            <Array as="points">
              <mxPoint x="-2030" y="-1930" />
              <mxPoint x="-2030" y="-1930" />
            </Array>
          </mxGeometry>
        </mxCell>
        <mxCell id="JB4W--CDRO3y1J96a5zg-9" value="&lt;div&gt;&lt;b&gt;metadata&lt;/b&gt;&lt;/div&gt;&lt;div&gt;&lt;br&gt;&lt;/div&gt;&lt;div&gt;&lt;b&gt;meta-rdk-soc-intel-puma7/&lt;/b&gt;&lt;/div&gt;&lt;div&gt;&lt;br&gt;&lt;/div&gt;&lt;div style=&quot;text-align: left;&quot;&gt;meta-intelce/&lt;/div&gt;&lt;div style=&quot;text-align: left;&quot;&gt;meta-intelce-atom-pp/&lt;/div&gt;&lt;div style=&quot;text-align: left;&quot;&gt;meta-cougarmountain/&lt;/div&gt;&lt;div style=&quot;text-align: left;&quot;&gt;meta-gateway-infr/&lt;/div&gt;&lt;div style=&quot;text-align: left;&quot;&gt;meta-opensync-cert-test/&lt;/div&gt;&lt;div style=&quot;text-align: left;&quot;&gt;meta-opensync-rdk-compat/&lt;/div&gt;&lt;div style=&quot;text-align: left;&quot;&gt;meta-puma-base/&lt;/div&gt;&lt;div style=&quot;text-align: left;&quot;&gt;meta-puma-oss/&lt;/div&gt;&lt;div style=&quot;text-align: left;&quot;&gt;meta-puma-oss-ported/&lt;/div&gt;&lt;div style=&quot;text-align: left;&quot;&gt;meta-rdkbos-compat/&lt;/div&gt;" style="rounded=1;whiteSpace=wrap;html=1;align=center;verticalAlign=top;fillColor=#dae8fc;strokeColor=#6c8ebf;strokeWidth=3;fontColor=light-dark(#6c8ebf, #ededed);" parent="1" vertex="1">
          <mxGeometry x="-2130" y="-2300" width="200" height="220" as="geometry" />
        </mxCell>
        <mxCell id="JB4W--CDRO3y1J96a5zg-10" value="&lt;div&gt;&lt;b&gt;source&lt;/b&gt;&lt;/div&gt;&lt;div&gt;&lt;br&gt;&lt;/div&gt;&lt;b&gt;sdk/&lt;/b&gt;&lt;div&gt;&lt;div&gt;&lt;br&gt;&lt;/div&gt;&lt;div&gt;appcpu-gw&amp;nbsp;&lt;span style=&quot;background-color: transparent;&quot;&gt;atom-swdl-utility&amp;nbsp;&lt;/span&gt;&lt;span style=&quot;background-color: transparent;&quot;&gt;cli&amp;nbsp;&lt;/span&gt;&lt;span style=&quot;background-color: transparent;&quot;&gt;cli-menus&lt;/span&gt;&lt;/div&gt;&lt;div&gt;&lt;span style=&quot;background-color: transparent;&quot;&gt;common-cc-init-once&amp;nbsp;&lt;/span&gt;&lt;span style=&quot;background-color: transparent;&quot;&gt;common-headers&lt;/span&gt;&lt;/div&gt;&lt;div&gt;common-icc&amp;nbsp;&lt;span style=&quot;background-color: transparent;&quot;&gt;common-logger&amp;nbsp;&lt;/span&gt;&lt;span style=&quot;background-color: transparent;&quot;&gt;common-nvram-mngr&lt;/span&gt;&lt;/div&gt;&lt;div&gt;&lt;span style=&quot;background-color: transparent;&quot;&gt;common-shmdb&amp;nbsp;&lt;/span&gt;&lt;span style=&quot;background-color: transparent;&quot;&gt;common-utils&lt;/span&gt;&lt;/div&gt;&lt;div&gt;cppp&amp;nbsp;&lt;span style=&quot;background-color: transparent;&quot;&gt;datapath&amp;nbsp;&lt;/span&gt;&lt;span style=&quot;background-color: transparent;&quot;&gt;demux-fw&amp;nbsp;&lt;/span&gt;&lt;span style=&quot;background-color: transparent;&quot;&gt;extswitch&amp;nbsp;&lt;/span&gt;&lt;span style=&quot;background-color: transparent;&quot;&gt;gpio&lt;/span&gt;&lt;/div&gt;&lt;div&gt;&lt;span style=&quot;background-color: transparent;&quot;&gt;init-man&amp;nbsp;&lt;/span&gt;&lt;span style=&quot;background-color: transparent;&quot;&gt;initscripts&amp;nbsp;&lt;/span&gt;&lt;span style=&quot;background-color: transparent;&quot;&gt;intel-switch-hal&lt;/span&gt;&lt;/div&gt;&lt;div&gt;intelce-autoconf&amp;nbsp;&lt;span style=&quot;background-color: transparent;&quot;&gt;itstore-mac-db&lt;/span&gt;&lt;/div&gt;&lt;div&gt;&lt;span style=&quot;background-color: transparent;&quot;&gt;mxl-mcast-service&amp;nbsp;&lt;/span&gt;&lt;span style=&quot;background-color: transparent;&quot;&gt;moca20&amp;nbsp;&lt;/span&gt;&lt;span style=&quot;background-color: transparent;&quot;&gt;ncp&amp;nbsp;&lt;/span&gt;&lt;span style=&quot;background-color: transparent;&quot;&gt;netip-sec-server&lt;/span&gt;&lt;/div&gt;&lt;div&gt;opensync-vendor-mxl&amp;nbsp;&lt;span style=&quot;background-color: transparent;&quot;&gt;pp-abstract-layer&lt;/span&gt;&lt;/div&gt;&lt;div&gt;&lt;span style=&quot;background-color: transparent;&quot;&gt;pp-fw-download&amp;nbsp;&lt;/span&gt;&lt;span style=&quot;background-color: transparent;&quot;&gt;puma-litepath&amp;nbsp;&lt;/span&gt;&lt;span style=&quot;background-color: transparent;&quot;&gt;puma-power-app&lt;/span&gt;&lt;/div&gt;&lt;div&gt;puma-startup&amp;nbsp;&lt;span style=&quot;background-color: transparent;&quot;&gt;realtek-switch-hal&lt;/span&gt;&lt;/div&gt;&lt;div&gt;&lt;span style=&quot;background-color: transparent;&quot;&gt;rpc-management&amp;nbsp;&lt;/span&gt;&lt;span style=&quot;background-color: transparent;&quot;&gt;rpc-wlan-config&amp;nbsp;&lt;/span&gt;&lt;span style=&quot;background-color: transparent;&quot;&gt;sec-fw-common&lt;/span&gt;&lt;/div&gt;&lt;div&gt;sec-headers&amp;nbsp;&lt;span style=&quot;background-color: transparent;&quot;&gt;sec-kernel-p7&amp;nbsp;&lt;/span&gt;&lt;span style=&quot;background-color: transparent;&quot;&gt;sec-lib&lt;/span&gt;&lt;/div&gt;&lt;div&gt;&lt;span style=&quot;background-color: transparent;&quot;&gt;sec-pm-daemon&amp;nbsp;&lt;/span&gt;&lt;span style=&quot;background-color: transparent;&quot;&gt;sysd-init-scripts&amp;nbsp;&lt;/span&gt;&lt;span style=&quot;background-color: transparent;&quot;&gt;system-utils&lt;/span&gt;&lt;/div&gt;&lt;div&gt;trusted-store-lib&amp;nbsp;&lt;span style=&quot;background-color: transparent;&quot;&gt;ugw_sdk&amp;nbsp;&lt;/span&gt;&lt;span style=&quot;background-color: transparent;&quot;&gt;utils&amp;nbsp;&lt;/span&gt;&lt;span style=&quot;background-color: transparent;&quot;&gt;watchdog&lt;/span&gt;&lt;/div&gt;&lt;div&gt;&lt;span style=&quot;background-color: transparent;&quot;&gt;wifi-proxy&amp;nbsp;&lt;/span&gt;&lt;span style=&quot;background-color: transparent;&quot;&gt;appcpu-infr&amp;nbsp;&lt;/span&gt;&lt;span style=&quot;background-color: transparent;&quot;&gt;cable-datapath&amp;nbsp;&lt;/span&gt;&lt;span style=&quot;background-color: transparent;&quot;&gt;directconnect-dp&lt;/span&gt;&lt;/div&gt;&lt;div&gt;dtp-clock-translator&amp;nbsp;&lt;span style=&quot;background-color: transparent;&quot;&gt;intel-phy11g-hal&lt;/span&gt;&lt;/div&gt;&lt;div&gt;&lt;span style=&quot;background-color: transparent;&quot;&gt;intel-phy211-hal&amp;nbsp;&lt;/span&gt;&lt;span style=&quot;background-color: transparent;&quot;&gt;pp&amp;nbsp;&lt;/span&gt;&lt;span style=&quot;background-color: transparent;&quot;&gt;puma-safe-libc&amp;nbsp;&lt;/span&gt;&lt;span style=&quot;background-color: transparent;&quot;&gt;release-info&lt;/span&gt;&lt;/div&gt;&lt;div&gt;switch_api_drv&amp;nbsp;&lt;span style=&quot;background-color: transparent;&quot;&gt;synopsys-gbe&lt;/span&gt;&lt;/div&gt;&lt;div&gt;&lt;span style=&quot;background-color: transparent;&quot;&gt;system-monitor-mod&amp;nbsp;&lt;/span&gt;&lt;span style=&quot;background-color: transparent;&quot;&gt;uimage&lt;/span&gt;&lt;/div&gt;&lt;/div&gt;" style="rounded=1;whiteSpace=wrap;html=1;verticalAlign=top;fillColor=#dae8fc;strokeColor=none;fontColor=light-dark(#6c8ebf, #ededed);" parent="1" vertex="1">
          <mxGeometry x="-1920" y="-2300" width="310" height="360" as="geometry" />
        </mxCell>
        <mxCell id="ZiwmfGuqBUQpRH041LdQ-6" value="" style="edgeStyle=orthogonalEdgeStyle;rounded=0;orthogonalLoop=1;jettySize=auto;html=1;fillColor=#ffe6cc;strokeColor=#d79b00;strokeWidth=2;" edge="1" parent="1" source="JB4W--CDRO3y1J96a5zg-11" target="viVxv3WKHKFQd3w1aEIA-5">
          <mxGeometry relative="1" as="geometry">
            <mxPoint x="-695" y="-2155" as="targetPoint" />
            <Array as="points">
              <mxPoint x="-695" y="-1680" />
            </Array>
          </mxGeometry>
        </mxCell>
        <mxCell id="JB4W--CDRO3y1J96a5zg-11" value="&lt;b&gt;metadata&lt;/b&gt;&lt;div&gt;&lt;br&gt;&lt;/div&gt;&lt;div&gt;&lt;div&gt;meta-inangoplug/&lt;/div&gt;&lt;/div&gt;" style="rounded=1;whiteSpace=wrap;html=1;verticalAlign=top;fillColor=#ffe6cc;strokeColor=#d79b00;strokeWidth=3;fontColor=light-dark(#d79b00, #ededed);" parent="1" vertex="1">
          <mxGeometry x="-760" y="-2300" width="130" height="70" as="geometry" />
        </mxCell>
        <mxCell id="JB4W--CDRO3y1J96a5zg-12" value="&lt;b&gt;source&lt;/b&gt;&lt;div&gt;&lt;br&gt;&lt;/div&gt;&lt;div&gt;&lt;div&gt;&lt;b&gt;components/opensource/&lt;/b&gt;&lt;/div&gt;&lt;div&gt;&lt;span style=&quot;background-color: transparent;&quot;&gt;gdbus-client&amp;nbsp;&lt;/span&gt;&lt;span style=&quot;background-color: transparent;&quot;&gt;rbus&amp;nbsp;&lt;/span&gt;&lt;span style=&quot;background-color: transparent;&quot;&gt;rbuscore&lt;/span&gt;&lt;/div&gt;&lt;div&gt;&lt;br&gt;&lt;/div&gt;&lt;div&gt;&lt;span style=&quot;background-color: transparent;&quot;&gt;&lt;b&gt;rdk/components/generic/&lt;/b&gt;&lt;/span&gt;&lt;/div&gt;&lt;div&gt;&lt;span style=&quot;background-color: transparent;&quot;&gt;OvsAgent WebconfigFramework breakpad_wrapper&amp;nbsp;&lt;/span&gt;&lt;span style=&quot;background-color: transparent;&quot;&gt;crashupload dca&lt;/span&gt;&lt;/div&gt;&lt;div&gt;&lt;span style=&quot;background-color: transparent;&quot;&gt;dcm jst libSyscallWrapper&amp;nbsp;&lt;/span&gt;&lt;span style=&quot;background-color: transparent;&quot;&gt;libunpriv lxc-container-generator&lt;/span&gt;&lt;/div&gt;&lt;div&gt;&lt;span style=&quot;background-color: transparent;&quot;&gt;lxccpid&amp;nbsp;&lt;/span&gt;&lt;span style=&quot;background-color: transparent;&quot;&gt;rdk_logger&amp;nbsp;&lt;/span&gt;&lt;span style=&quot;background-color: transparent;&quot;&gt;rdkssa rdm rfc sys_mon_tools/mem_analyser_tools&lt;/span&gt;&lt;/div&gt;&lt;div&gt;&lt;span style=&quot;background-color: transparent;&quot;&gt;sys_mon_tools/sys_resource syslog_helper&amp;nbsp;&lt;/span&gt;&lt;span style=&quot;background-color: transparent;&quot;&gt;telemetry xconf-simulator&amp;nbsp;&lt;/span&gt;&lt;/div&gt;&lt;div&gt;&lt;span style=&quot;background-color: transparent;&quot;&gt;xupnp&lt;/span&gt;&lt;/div&gt;&lt;div&gt;&lt;br&gt;&lt;/div&gt;&lt;div&gt;&lt;b&gt;rdk/components/opensource/&lt;/b&gt;&lt;/div&gt;&lt;div&gt;&lt;span style=&quot;background-color: transparent;&quot;&gt;ipoe_health_check&amp;nbsp;&lt;/span&gt;&lt;span style=&quot;background-color: transparent;&quot;&gt;rtmessage&lt;/span&gt;&lt;/div&gt;&lt;div&gt;&lt;br&gt;&lt;/div&gt;&lt;div&gt;&lt;b&gt;rdkb/components/generic/&lt;/b&gt;&lt;/div&gt;&lt;div&gt;&lt;span style=&quot;background-color: transparent;&quot;&gt;CcspLogAgent&amp;nbsp;&lt;/span&gt;&lt;span style=&quot;background-color: transparent;&quot;&gt;harvester&amp;nbsp;&lt;/span&gt;&lt;span style=&quot;background-color: transparent;&quot;&gt;json-rpc&amp;nbsp;&lt;/span&gt;&lt;span style=&quot;background-color: transparent;&quot;&gt;mtu_modifier&lt;/span&gt;&lt;/div&gt;&lt;div&gt;notify_comp&amp;nbsp;&lt;span style=&quot;background-color: transparent;&quot;&gt;servicemanager&amp;nbsp;&lt;/span&gt;&lt;span style=&quot;background-color: transparent;&quot;&gt;sso&amp;nbsp;&lt;/span&gt;&lt;span style=&quot;background-color: transparent;&quot;&gt;startParodus&lt;/span&gt;&lt;/div&gt;&lt;div&gt;&lt;br&gt;&lt;/div&gt;&lt;div&gt;&lt;b&gt;rdkb/components/opensource/ccsp/&lt;/b&gt;&lt;/div&gt;&lt;div&gt;&lt;span style=&quot;background-color: transparent;&quot;&gt;CcspAdvSecurity&amp;nbsp;&lt;/span&gt;&lt;span style=&quot;background-color: transparent;&quot;&gt;CcspCMAgent&amp;nbsp;&lt;/span&gt;&lt;span style=&quot;background-color: transparent;&quot;&gt;CcspCommonLibrary&amp;nbsp;&lt;/span&gt;&lt;span style=&quot;background-color: transparent;&quot;&gt;CcspCr&lt;/span&gt;&lt;/div&gt;&lt;div&gt;CcspDmCli&amp;nbsp;&lt;span style=&quot;background-color: transparent;&quot;&gt;CcspEPONAgent&amp;nbsp;&lt;/span&gt;&lt;span style=&quot;background-color: transparent;&quot;&gt;CcspEthAgent&amp;nbsp;&lt;/span&gt;&lt;span style=&quot;background-color: transparent;&quot;&gt;CcspHomeSecurity&lt;/span&gt;&lt;/div&gt;&lt;div&gt;CcspLMLite&amp;nbsp;&lt;span style=&quot;background-color: transparent;&quot;&gt;CcspMisc&amp;nbsp;&lt;/span&gt;&lt;span style=&quot;background-color: transparent;&quot;&gt;CcspMoCA&amp;nbsp;&lt;/span&gt;&lt;span style=&quot;background-color: transparent;&quot;&gt;CcspMtaAgent&lt;/span&gt;&lt;/div&gt;&lt;div&gt;CcspPandM&amp;nbsp;&lt;span style=&quot;background-color: transparent;&quot;&gt;CcspPsm&amp;nbsp;&lt;/span&gt;&lt;span style=&quot;background-color: transparent;&quot;&gt;CcspSnmpPa&amp;nbsp;&lt;/span&gt;&lt;span style=&quot;background-color: transparent;&quot;&gt;CcspTr069Pa&lt;/span&gt;&lt;/div&gt;&lt;div&gt;CcspWifiAgent&amp;nbsp;&lt;span style=&quot;background-color: transparent;&quot;&gt;CcspXDNS&amp;nbsp;&lt;/span&gt;&lt;span style=&quot;background-color: transparent;&quot;&gt;FirmwareSanity&amp;nbsp;&lt;/span&gt;&lt;span style=&quot;background-color: transparent;&quot;&gt;GwProvApp&lt;/span&gt;&lt;/div&gt;&lt;div&gt;GwProvApp-EthWan&amp;nbsp;&lt;span style=&quot;background-color: transparent;&quot;&gt;GwProvApp-ePON&amp;nbsp;&lt;/span&gt;&lt;span style=&quot;background-color: transparent;&quot;&gt;MeshAgent&amp;nbsp;&lt;/span&gt;&lt;span style=&quot;background-color: transparent;&quot;&gt;PowerManager&lt;/span&gt;&lt;/div&gt;&lt;div&gt;RdkGponManager&amp;nbsp;&lt;span style=&quot;background-color: transparent;&quot;&gt;RdkPlatformManager&amp;nbsp;&lt;/span&gt;&lt;span style=&quot;background-color: transparent;&quot;&gt;RdkPppManager&lt;/span&gt;&lt;/div&gt;&lt;div&gt;&lt;span style=&quot;background-color: transparent;&quot;&gt;RdkTelcoVoiceManager&amp;nbsp;&lt;/span&gt;&lt;span style=&quot;background-color: transparent;&quot;&gt;RdkVlanBridgingManager&amp;nbsp;&lt;/span&gt;&lt;span style=&quot;background-color: transparent;&quot;&gt;RdkWanManager&lt;/span&gt;&lt;/div&gt;&lt;div&gt;&lt;span style=&quot;background-color: transparent;&quot;&gt;RdkXdslManager&amp;nbsp;&lt;/span&gt;&lt;span style=&quot;background-color: transparent;&quot;&gt;TestAndDiagnostic&amp;nbsp;&lt;/span&gt;&lt;span style=&quot;background-color: transparent;&quot;&gt;Utopia&amp;nbsp;&lt;/span&gt;&lt;span style=&quot;background-color: transparent;&quot;&gt;Xconf&amp;nbsp;&lt;/span&gt;&lt;span style=&quot;background-color: transparent;&quot;&gt;hal&amp;nbsp;&lt;/span&gt;&lt;span style=&quot;background-color: transparent;&quot;&gt;halinterface&lt;/span&gt;&lt;/div&gt;&lt;div&gt;&lt;span style=&quot;background-color: transparent;&quot;&gt;hotspot&amp;nbsp;&lt;/span&gt;&lt;span style=&quot;background-color: transparent;&quot;&gt;sysint&amp;nbsp;&lt;/span&gt;&lt;span style=&quot;background-color: transparent;&quot;&gt;webui&amp;nbsp;&lt;/span&gt;&lt;span style=&quot;background-color: transparent;&quot;&gt;webui-bwg&amp;nbsp;&lt;/span&gt;&lt;span style=&quot;background-color: transparent;&quot;&gt;sysint/device&lt;/span&gt;&lt;/div&gt;&lt;div&gt;&lt;br&gt;&lt;/div&gt;&lt;div&gt;&lt;span style=&quot;background-color: transparent;&quot;&gt;&lt;b&gt;rdkb/components/generic/&lt;/b&gt;&lt;/span&gt;&lt;/div&gt;&lt;div&gt;&lt;span style=&quot;background-color: transparent;&quot;&gt;CcspLogAgent/devices&amp;nbsp;&lt;/span&gt;&lt;span style=&quot;background-color: transparent;&quot;&gt;harvester/devices&lt;/span&gt;&lt;/div&gt;&lt;div&gt;&lt;br&gt;&lt;/div&gt;&lt;div&gt;rdkb/components/opensource/ccsp/&lt;/div&gt;&lt;div&gt;&lt;span style=&quot;background-color: transparent;&quot;&gt;CcspCr/devices&amp;nbsp;&lt;/span&gt;&lt;span style=&quot;background-color: transparent;&quot;&gt;CcspLMLite/devices&lt;/span&gt;&lt;/div&gt;&lt;div&gt;CcspPandM/devices&amp;nbsp;&lt;span style=&quot;background-color: transparent;&quot;&gt;CcspPsm/devices&lt;/span&gt;&lt;/div&gt;&lt;div&gt;CcspSnmpPa/devices&amp;nbsp;&lt;span style=&quot;background-color: transparent;&quot;&gt;CcspTr069Pa/devices&lt;/span&gt;&lt;/div&gt;&lt;div&gt;CcspWifiAgent/devices&amp;nbsp;&lt;span style=&quot;background-color: transparent;&quot;&gt;TestAndDiagnostic/devices&lt;/span&gt;&lt;/div&gt;&lt;div&gt;Utopia/devices&amp;nbsp;&lt;span style=&quot;background-color: transparent;&quot;&gt;hotspot/devices&lt;/span&gt;&lt;/div&gt;&lt;/div&gt;" style="rounded=1;whiteSpace=wrap;html=1;verticalAlign=top;fillColor=#d5e8d4;strokeColor=none;fontColor=light-dark(#82b366, #ededed);" parent="1" vertex="1">
          <mxGeometry x="-1220" y="-2300" width="400" height="590" as="geometry" />
        </mxCell>
        <mxCell id="JB4W--CDRO3y1J96a5zg-14" value="&lt;b&gt;metadata&lt;/b&gt;&lt;div&gt;&lt;br&gt;&lt;/div&gt;&lt;div&gt;&lt;div style=&quot;text-align: left;&quot;&gt;&lt;span style=&quot;background-color: transparent;&quot;&gt;openembedded-core/&lt;/span&gt;bitbake/&lt;/div&gt;&lt;div style=&quot;text-align: left;&quot;&gt;openembedded-core/&lt;/div&gt;&lt;div style=&quot;text-align: left;&quot;&gt;meta-openembedded/&lt;/div&gt;&lt;div style=&quot;text-align: left;&quot;&gt;meta-python2/&lt;/div&gt;&lt;div style=&quot;text-align: left;&quot;&gt;meta-virtualization/&lt;/div&gt;&lt;/div&gt;" style="rounded=1;whiteSpace=wrap;html=1;verticalAlign=top;fillColor=#d5e8d4;strokeColor=#82b366;strokeWidth=3;fontColor=light-dark(#82b366, #ededed);" parent="1" vertex="1">
          <mxGeometry x="-1440" y="-2300" width="210" height="120" as="geometry" />
        </mxCell>
        <mxCell id="klQg9qCdkzRp1WcOre41-1" value="puma7-atom-r7353mr-oe31.xml" style="text;html=1;align=center;verticalAlign=middle;resizable=0;points=[];autosize=1;strokeColor=none;fillColor=none;fontSize=24;" vertex="1" parent="1">
          <mxGeometry x="-2075" y="-2530" width="360" height="40" as="geometry" />
        </mxCell>
        <mxCell id="klQg9qCdkzRp1WcOre41-4" value="" style="edgeStyle=orthogonalEdgeStyle;rounded=0;orthogonalLoop=1;jettySize=auto;html=1;startArrow=none;startFill=0;endArrow=none;fillColor=#dae8fc;strokeColor=#6c8ebf;strokeWidth=3;fontColor=light-dark(#6c8ebf, #ededed);" edge="1" parent="1" source="JB4W--CDRO3y1J96a5zg-10" target="JB4W--CDRO3y1J96a5zg-4">
          <mxGeometry relative="1" as="geometry">
            <mxPoint x="-2020" y="-2290" as="sourcePoint" />
            <mxPoint x="-2020" y="-2325" as="targetPoint" />
            <Array as="points">
              <mxPoint x="-1765" y="-2260" />
              <mxPoint x="-1765" y="-2260" />
            </Array>
          </mxGeometry>
        </mxCell>
        <mxCell id="klQg9qCdkzRp1WcOre41-5" value="" style="edgeStyle=orthogonalEdgeStyle;rounded=0;orthogonalLoop=1;jettySize=auto;html=1;startArrow=none;startFill=0;endArrow=none;fillColor=#d5e8d4;strokeColor=#82b366;strokeWidth=3;fontColor=light-dark(#82b366, #ededed);" edge="1" parent="1" source="JB4W--CDRO3y1J96a5zg-14" target="JB4W--CDRO3y1J96a5zg-3">
          <mxGeometry relative="1" as="geometry">
            <mxPoint x="-1880" y="-2280" as="sourcePoint" />
            <mxPoint x="-1880" y="-2315" as="targetPoint" />
            <Array as="points">
              <mxPoint x="-1400" y="-2300" />
              <mxPoint x="-1400" y="-2300" />
            </Array>
          </mxGeometry>
        </mxCell>
        <mxCell id="klQg9qCdkzRp1WcOre41-6" value="" style="edgeStyle=orthogonalEdgeStyle;rounded=0;orthogonalLoop=1;jettySize=auto;html=1;startArrow=none;startFill=0;endArrow=none;fillColor=#d5e8d4;strokeColor=#82b366;strokeWidth=3;fontColor=light-dark(#82b366, #ededed);" edge="1" parent="1" source="JB4W--CDRO3y1J96a5zg-12" target="JB4W--CDRO3y1J96a5zg-5">
          <mxGeometry relative="1" as="geometry">
            <mxPoint x="-1870" y="-2270" as="sourcePoint" />
            <mxPoint x="-1870" y="-2305" as="targetPoint" />
            <Array as="points">
              <mxPoint x="-1080" y="-2210" />
              <mxPoint x="-1080" y="-2210" />
            </Array>
          </mxGeometry>
        </mxCell>
        <mxCell id="klQg9qCdkzRp1WcOre41-7" value="" style="edgeStyle=orthogonalEdgeStyle;rounded=0;orthogonalLoop=1;jettySize=auto;html=1;startArrow=none;startFill=0;endArrow=none;fillColor=#ffe6cc;strokeColor=#d79b00;strokeWidth=3;fontColor=light-dark(#d79b00, #ededed);" edge="1" parent="1" source="JB4W--CDRO3y1J96a5zg-11" target="JB4W--CDRO3y1J96a5zg-7">
          <mxGeometry relative="1" as="geometry">
            <mxPoint x="-1850" y="-2260" as="sourcePoint" />
            <mxPoint x="-1850" y="-2295" as="targetPoint" />
            <Array as="points">
              <mxPoint x="-700" y="-2330" />
              <mxPoint x="-700" y="-2330" />
            </Array>
          </mxGeometry>
        </mxCell>
        <mxCell id="klQg9qCdkzRp1WcOre41-8" value="" style="edgeStyle=orthogonalEdgeStyle;rounded=0;orthogonalLoop=1;jettySize=auto;html=1;startArrow=none;startFill=0;endArrow=none;fillColor=#fff2cc;strokeColor=#d6b656;strokeWidth=3;fontColor=light-dark(#dec26e, #ededed);" edge="1" parent="1" source="JB4W--CDRO3y1J96a5zg-8" target="JB4W--CDRO3y1J96a5zg-1">
          <mxGeometry relative="1" as="geometry">
            <mxPoint x="-1830" y="-2250" as="sourcePoint" />
            <mxPoint x="-1830" y="-2285" as="targetPoint" />
            <Array as="points">
              <mxPoint x="-530" y="-2320" />
              <mxPoint x="-530" y="-2320" />
            </Array>
          </mxGeometry>
        </mxCell>
        <mxCell id="TAsrdOueU6-JRDM0Ly6Q-1" value="&lt;div&gt;&lt;b&gt;Licenses/&lt;/b&gt;&lt;/div&gt;&lt;div&gt;&lt;b&gt;&lt;br&gt;&lt;/b&gt;&lt;/div&gt;&lt;div&gt;&lt;b&gt;setup/&lt;/b&gt;&lt;/div&gt;" style="rounded=1;whiteSpace=wrap;html=1;verticalAlign=top;fillColor=#dae8fc;strokeColor=#6c8ebf;fontColor=light-dark(#6c8ebf, #ededed);" vertex="1" parent="1">
          <mxGeometry x="-1590" y="-2300" width="70" height="60" as="geometry" />
        </mxCell>
        <mxCell id="TAsrdOueU6-JRDM0Ly6Q-2" value="" style="edgeStyle=orthogonalEdgeStyle;rounded=0;orthogonalLoop=1;jettySize=auto;html=1;startArrow=none;startFill=0;endArrow=none;fillColor=#dae8fc;strokeColor=#6c8ebf;strokeWidth=3;fontColor=light-dark(#6c8ebf, #ededed);" edge="1" parent="1" source="TAsrdOueU6-JRDM0Ly6Q-1" target="JB4W--CDRO3y1J96a5zg-4">
          <mxGeometry relative="1" as="geometry">
            <mxPoint x="-1755" y="-2290" as="sourcePoint" />
            <mxPoint x="-1755" y="-2325" as="targetPoint" />
            <Array as="points">
              <mxPoint x="-1555" y="-2320" />
              <mxPoint x="-1555" y="-2320" />
            </Array>
          </mxGeometry>
        </mxCell>
        <mxCell id="viVxv3WKHKFQd3w1aEIA-4" value="&lt;div style=&quot;text-wrap-mode: nowrap; font-family: &amp;quot;Courier New&amp;quot;; font-size: 8px; text-align: left;&quot;&gt;HEAD❯ repo forall -c &#39;gitlog.py &quot;$REPO_PROJECT&quot; 24*180&#39;&lt;/div&gt;&lt;div style=&quot;text-wrap-mode: nowrap; font-family: &amp;quot;Courier New&amp;quot;; font-size: 8px; text-align: left;&quot;&gt;meta-openembedded.................. 2 weeks ago|Andre McCurdy(Andre)|breakpad: update breakpad, googletest and protobuf branches ( master -&amp;gt; main )&lt;/div&gt;&lt;div style=&quot;text-wrap-mode: nowrap; font-family: &amp;quot;Courier New&amp;quot;; font-size: 8px; text-align: left;&quot;&gt;meta-rdk-ext....................... 2 weeks ago|Andre McCurdy(Andre)|heaptrack: add -ldl to heaptrack_interpret target_link_libraries&lt;/div&gt;&lt;div style=&quot;text-wrap-mode: nowrap; font-family: &amp;quot;Courier New&amp;quot;; font-size: 8px; text-align: left;&quot;&gt;meta-puma-oss-ported............... 2 weeks ago|Andre McCurdy(Andre)|c-ares: update SRC_URI&lt;/div&gt;&lt;div style=&quot;text-wrap-mode: nowrap; font-family: &amp;quot;Courier New&amp;quot;; font-size: 8px; text-align: left;&quot;&gt;bitbake............................ 2 weeks ago|Andre McCurdy(Andre)|fetch2/git: workaround recent git CVE-2023-22490 and CVE-2023-23946 fixes&lt;/div&gt;&lt;div style=&quot;text-wrap-mode: nowrap; font-family: &amp;quot;Courier New&amp;quot;; font-size: 8px; text-align: left;&quot;&gt;setup.............................. 2 weeks ago|Andre McCurdy(Andre)|p7_atom_rdkbos_dunfell.config: over-ride DL_DIR for CMF source repos fetched via file://&lt;/div&gt;&lt;div style=&quot;text-wrap-mode: nowrap; font-family: &amp;quot;Courier New&amp;quot;; font-size: 8px; text-align: left;&quot;&gt;&amp;nbsp; &amp;nbsp; &amp;nbsp; &amp;nbsp; &amp;nbsp; &amp;nbsp; &amp;nbsp; &amp;nbsp; &amp;nbsp; &amp;nbsp; &amp;nbsp; &amp;nbsp; &amp;nbsp; &amp;nbsp; &amp;nbsp; &amp;nbsp; &amp;nbsp; &amp;nbsp; 2 weeks ago|Andre McCurdy(Andre)|puma_setup: set default value of PUMA_SETUP_ARG_VERBOSE to 1&lt;/div&gt;&lt;div style=&quot;text-wrap-mode: nowrap; font-family: &amp;quot;Courier New&amp;quot;; font-size: 8px; text-align: left;&quot;&gt;&amp;nbsp; &amp;nbsp; &amp;nbsp; &amp;nbsp; &amp;nbsp; &amp;nbsp; &amp;nbsp; &amp;nbsp; &amp;nbsp; &amp;nbsp; &amp;nbsp; &amp;nbsp; &amp;nbsp; &amp;nbsp; &amp;nbsp; &amp;nbsp; &amp;nbsp; &amp;nbsp; 2 weeks ago|Andre McCurdy(Andre)|puma_setup: set PUMA_SETUP_ARG_BUILDTOOLS to 0 by default&lt;/div&gt;&lt;div style=&quot;text-wrap-mode: nowrap; font-family: &amp;quot;Courier New&amp;quot;; font-size: 8px; text-align: left;&quot;&gt;&amp;nbsp; &amp;nbsp; &amp;nbsp; &amp;nbsp; &amp;nbsp; &amp;nbsp; &amp;nbsp; &amp;nbsp; &amp;nbsp; &amp;nbsp; &amp;nbsp; &amp;nbsp; &amp;nbsp; &amp;nbsp; &amp;nbsp; &amp;nbsp; &amp;nbsp; &amp;nbsp; 2 weeks ago|Andre McCurdy(Andre)|download_and_build.sh: add initial version&lt;/div&gt;" style="rounded=0;whiteSpace=wrap;html=1;strokeColor=#666666;fillColor=#f5f5f5;fontColor=#333333;" vertex="1" parent="1">
          <mxGeometry x="-2120" y="-1310" width="850" height="110" as="geometry" />
        </mxCell>
        <mxCell id="viVxv3WKHKFQd3w1aEIA-5" value="&lt;div&gt;&lt;font face=&quot;Courier New&quot;&gt;layer&amp;nbsp; &amp;nbsp; &amp;nbsp; &amp;nbsp; &amp;nbsp; &amp;nbsp; &amp;nbsp; &amp;nbsp; &amp;nbsp;path&amp;nbsp; &amp;nbsp; &amp;nbsp; &amp;nbsp; &amp;nbsp; &amp;nbsp; &amp;nbsp; &amp;nbsp; &amp;nbsp; &amp;nbsp; &amp;nbsp; &amp;nbsp; &amp;nbsp; &amp;nbsp; &amp;nbsp; &amp;nbsp; &amp;nbsp; &amp;nbsp; &amp;nbsp; priority&lt;/font&gt;&lt;/div&gt;&lt;div&gt;&lt;font face=&quot;Courier New&quot;&gt;==========================================================================&lt;/font&gt;&lt;/div&gt;&lt;div&gt;&lt;font face=&quot;Courier New&quot;&gt;&lt;br&gt;&lt;/font&gt;&lt;/div&gt;&lt;div&gt;&lt;font style=&quot;color: light-dark(rgb(130, 179, 102), rgb(237, 237, 237));&quot; face=&quot;Courier New&quot;&gt;&lt;b&gt;meta&amp;nbsp; &amp;nbsp; &amp;nbsp; &amp;nbsp; &amp;nbsp; &amp;nbsp; &amp;nbsp; &amp;nbsp; &amp;nbsp; openembedded-core/meta&amp;nbsp; 5&lt;/b&gt;&lt;/font&gt;&lt;/div&gt;&lt;div&gt;&lt;font style=&quot;color: light-dark(rgb(130, 179, 102), rgb(237, 237, 237));&quot; face=&quot;Courier New&quot;&gt;&lt;b&gt;meta-filesystems&amp;nbsp; &amp;nbsp; &amp;nbsp; meta-openembedded/meta-filesystems&amp;nbsp; 6&lt;/b&gt;&lt;/font&gt;&lt;/div&gt;&lt;div&gt;&lt;font style=&quot;color: light-dark(rgb(130, 179, 102), rgb(237, 237, 237));&quot; face=&quot;Courier New&quot;&gt;&lt;b&gt;meta-multimedia&amp;nbsp; &amp;nbsp; &amp;nbsp; &amp;nbsp;meta-openembedded/meta-multimedia&amp;nbsp; 6&lt;/b&gt;&lt;/font&gt;&lt;/div&gt;&lt;div&gt;&lt;font style=&quot;color: light-dark(rgb(130, 179, 102), rgb(237, 237, 237));&quot; face=&quot;Courier New&quot;&gt;&lt;b&gt;meta-networking&amp;nbsp; &amp;nbsp; &amp;nbsp; &amp;nbsp;meta-openembedded/meta-networking&amp;nbsp; 5&lt;/b&gt;&lt;/font&gt;&lt;/div&gt;&lt;div&gt;&lt;font style=&quot;color: light-dark(rgb(130, 179, 102), rgb(237, 237, 237));&quot; face=&quot;Courier New&quot;&gt;&lt;b&gt;meta-oe&amp;nbsp; &amp;nbsp; &amp;nbsp; &amp;nbsp; &amp;nbsp; &amp;nbsp; &amp;nbsp; &amp;nbsp;meta-openembedded/meta-oe&amp;nbsp; 6&lt;/b&gt;&lt;/font&gt;&lt;/div&gt;&lt;div&gt;&lt;font style=&quot;color: light-dark(rgb(130, 179, 102), rgb(237, 237, 237));&quot; face=&quot;Courier New&quot;&gt;&lt;b&gt;meta-python&amp;nbsp; &amp;nbsp; &amp;nbsp; &amp;nbsp; &amp;nbsp; &amp;nbsp;meta-openembedded/meta-python&amp;nbsp; 7&lt;/b&gt;&lt;/font&gt;&lt;/div&gt;&lt;div&gt;&lt;font style=&quot;color: light-dark(rgb(130, 179, 102), rgb(237, 237, 237));&quot; face=&quot;Courier New&quot;&gt;&lt;b&gt;meta-webserver&amp;nbsp; &amp;nbsp; &amp;nbsp; &amp;nbsp; meta-openembedded/meta-webserver&amp;nbsp; 6&lt;/b&gt;&lt;/font&gt;&lt;/div&gt;&lt;div&gt;&lt;font style=&quot;color: light-dark(rgb(130, 179, 102), rgb(237, 237, 237));&quot; face=&quot;Courier New&quot;&gt;&lt;b&gt;&lt;br&gt;&lt;/b&gt;&lt;/font&gt;&lt;/div&gt;&lt;div&gt;&lt;font style=&quot;color: light-dark(rgb(130, 179, 102), rgb(237, 237, 237));&quot; face=&quot;Courier New&quot;&gt;&lt;b&gt;meta-gplv2&amp;nbsp; &amp;nbsp; &amp;nbsp; &amp;nbsp; &amp;nbsp; &amp;nbsp; meta-gplv2&amp;nbsp; 1&lt;/b&gt;&lt;/font&gt;&lt;/div&gt;&lt;div&gt;&lt;font style=&quot;color: light-dark(rgb(130, 179, 102), rgb(237, 237, 237));&quot; face=&quot;Courier New&quot;&gt;&lt;b&gt;meta-python2&amp;nbsp; &amp;nbsp; &amp;nbsp; &amp;nbsp; &amp;nbsp; meta-python2&amp;nbsp; 7&lt;/b&gt;&lt;/font&gt;&lt;/div&gt;&lt;div&gt;&lt;font style=&quot;color: light-dark(rgb(130, 179, 102), rgb(237, 237, 237));&quot; face=&quot;Courier New&quot;&gt;&lt;b&gt;meta-virtualization&amp;nbsp; &amp;nbsp;meta-virtualization&amp;nbsp; 8&lt;/b&gt;&lt;/font&gt;&lt;/div&gt;&lt;div&gt;&lt;font style=&quot;color: light-dark(rgb(130, 179, 102), rgb(237, 237, 237));&quot; face=&quot;Courier New&quot;&gt;&lt;b&gt;&lt;br&gt;&lt;/b&gt;&lt;/font&gt;&lt;/div&gt;&lt;div&gt;&lt;font style=&quot;color: light-dark(rgb(130, 179, 102), rgb(237, 237, 237));&quot; face=&quot;Courier New&quot;&gt;&lt;b&gt;meta-cmf&amp;nbsp; &amp;nbsp; &amp;nbsp; &amp;nbsp; &amp;nbsp; &amp;nbsp; &amp;nbsp; meta-cmf&amp;nbsp; 8&lt;/b&gt;&lt;/font&gt;&lt;/div&gt;&lt;div&gt;&lt;font style=&quot;color: light-dark(rgb(130, 179, 102), rgb(237, 237, 237));&quot; face=&quot;Courier New&quot;&gt;&lt;b&gt;meta-cmf-mesh&amp;nbsp; &amp;nbsp; &amp;nbsp; &amp;nbsp; &amp;nbsp;meta-cmf-mesh&amp;nbsp; 8&lt;/b&gt;&lt;/font&gt;&lt;/div&gt;&lt;div&gt;&lt;font style=&quot;color: light-dark(rgb(130, 179, 102), rgb(237, 237, 237));&quot; face=&quot;Courier New&quot;&gt;&lt;b&gt;meta-cmf-broadband&amp;nbsp; &amp;nbsp; meta-cmf-broadband&amp;nbsp; 7&lt;/b&gt;&lt;/font&gt;&lt;/div&gt;&lt;div&gt;&lt;font style=&quot;color: light-dark(rgb(130, 179, 102), rgb(237, 237, 237));&quot; face=&quot;Courier New&quot;&gt;&lt;b&gt;meta-rdk&amp;nbsp; &amp;nbsp; &amp;nbsp; &amp;nbsp; &amp;nbsp; &amp;nbsp; &amp;nbsp; meta-rdk&amp;nbsp; 7&lt;/b&gt;&lt;/font&gt;&lt;/div&gt;&lt;div&gt;&lt;font style=&quot;color: light-dark(rgb(130, 179, 102), rgb(237, 237, 237));&quot; face=&quot;Courier New&quot;&gt;&lt;b&gt;meta-rdk-broadband&amp;nbsp; &amp;nbsp; meta-rdk-broadband&amp;nbsp; 6&lt;/b&gt;&lt;/font&gt;&lt;/div&gt;&lt;div&gt;&lt;font style=&quot;color: light-dark(rgb(130, 179, 102), rgb(237, 237, 237));&quot; face=&quot;Courier New&quot;&gt;&lt;b&gt;meta-rdk-ext&amp;nbsp; &amp;nbsp; &amp;nbsp; &amp;nbsp; &amp;nbsp; meta-rdk-ext&amp;nbsp; 6&lt;/b&gt;&lt;/font&gt;&lt;/div&gt;&lt;div&gt;&lt;font face=&quot;Courier New&quot;&gt;&lt;br&gt;&lt;/font&gt;&lt;/div&gt;&lt;div&gt;&lt;font face=&quot;Courier New&quot;&gt;meta-intel&amp;nbsp; &amp;nbsp; &amp;nbsp; &amp;nbsp; &amp;nbsp; &amp;nbsp; meta-intel&amp;nbsp; 5&lt;/font&gt;&lt;/div&gt;&lt;div&gt;&lt;font face=&quot;Courier New&quot;&gt;&lt;br&gt;&lt;/font&gt;&lt;/div&gt;&lt;div&gt;&lt;font style=&quot;color: light-dark(rgb(108, 142, 191), rgb(237, 237, 237));&quot; face=&quot;Courier New&quot;&gt;&lt;b&gt;meta-puma-oss-ported&amp;nbsp; meta-rdk-soc-intel-puma7/meta-puma-oss-ported&amp;nbsp; 11&lt;/b&gt;&lt;/font&gt;&lt;/div&gt;&lt;div&gt;&lt;font style=&quot;color: light-dark(rgb(108, 142, 191), rgb(237, 237, 237));&quot; face=&quot;Courier New&quot;&gt;&lt;b&gt;meta-puma-oss&amp;nbsp; &amp;nbsp; &amp;nbsp; &amp;nbsp; &amp;nbsp;meta-rdk-soc-intel-puma7/meta-puma-oss&amp;nbsp; 11&lt;/b&gt;&lt;/font&gt;&lt;/div&gt;&lt;div&gt;&lt;font style=&quot;color: light-dark(rgb(108, 142, 191), rgb(237, 237, 237));&quot; face=&quot;Courier New&quot;&gt;&lt;b&gt;meta-puma-base&amp;nbsp; &amp;nbsp; &amp;nbsp; &amp;nbsp; meta-rdk-soc-intel-puma7/meta-puma-base&amp;nbsp; 6&lt;/b&gt;&lt;/font&gt;&lt;/div&gt;&lt;div&gt;&lt;font style=&quot;color: light-dark(rgb(108, 142, 191), rgb(237, 237, 237));&quot; face=&quot;Courier New&quot;&gt;&lt;b&gt;meta-intelce-atom-pp&amp;nbsp; meta-rdk-soc-intel-puma7/meta-intelce-atom-pp&amp;nbsp; 6&lt;/b&gt;&lt;/font&gt;&lt;/div&gt;&lt;div&gt;&lt;font style=&quot;color: light-dark(rgb(108, 142, 191), rgb(237, 237, 237));&quot; face=&quot;Courier New&quot;&gt;&lt;b&gt;meta-rdkbos-compat&amp;nbsp; &amp;nbsp; meta-rdk-soc-intel-puma7/meta-rdkbos-compat&amp;nbsp; 8&lt;/b&gt;&lt;/font&gt;&lt;/div&gt;&lt;div&gt;&lt;font style=&quot;color: light-dark(rgb(108, 142, 191), rgb(237, 237, 237));&quot; face=&quot;Courier New&quot;&gt;&lt;b&gt;meta-gateway-infr&amp;nbsp; &amp;nbsp; &amp;nbsp;meta-rdk-soc-intel-puma7/meta-gateway-infr&amp;nbsp; 8&lt;/b&gt;&lt;/font&gt;&lt;/div&gt;&lt;div&gt;&lt;font style=&quot;color: light-dark(rgb(108, 142, 191), rgb(237, 237, 237));&quot; face=&quot;Courier New&quot;&gt;&lt;b&gt;meta-cougarmountain&amp;nbsp; &amp;nbsp;meta-rdk-soc-intel-puma7/meta-cougarmountain&amp;nbsp; 7&lt;/b&gt;&lt;/font&gt;&lt;/div&gt;&lt;div&gt;&lt;font style=&quot;color: light-dark(rgb(108, 142, 191), rgb(237, 237, 237));&quot; face=&quot;Courier New&quot;&gt;&lt;b&gt;meta-intelce&amp;nbsp; &amp;nbsp; &amp;nbsp; &amp;nbsp; &amp;nbsp; meta-rdk-soc-intel-puma7/meta-intelce&amp;nbsp; 6&lt;/b&gt;&lt;/font&gt;&lt;/div&gt;&lt;div&gt;&lt;font face=&quot;Courier New&quot;&gt;&lt;br&gt;&lt;/font&gt;&lt;/div&gt;&lt;div&gt;&lt;font face=&quot;Courier New&quot;&gt;meta-inangoplug&amp;nbsp; &amp;nbsp; &amp;nbsp; &amp;nbsp;meta-inangoplug&amp;nbsp; 11&lt;/font&gt;&lt;/div&gt;&lt;div&gt;&lt;br&gt;&lt;/div&gt;" style="rounded=0;whiteSpace=wrap;html=1;align=left;strokeColor=#666666;fillColor=#f5f5f5;fontColor=#333333;" vertex="1" parent="1">
          <mxGeometry x="-2120" y="-1870" width="850" height="540" as="geometry" />
        </mxCell>
        <mxCell id="viVxv3WKHKFQd3w1aEIA-6" value="&lt;div&gt;&lt;font style=&quot;font-size: 18px;&quot; face=&quot;Courier New&quot;&gt;&lt;b style=&quot;&quot;&gt;The repo manifest file defines 190 repos, they can be grouped as:&lt;/b&gt;&lt;/font&gt;&lt;/div&gt;&lt;div&gt;&lt;font face=&quot;Courier New&quot;&gt;&lt;br&gt;&lt;/font&gt;&lt;/div&gt;&lt;div&gt;&lt;font face=&quot;Courier New&quot;&gt;metadata:&lt;/font&gt;&lt;/div&gt;&lt;div&gt;&lt;font face=&quot;Courier New&quot;&gt;&lt;br&gt;&lt;/font&gt;&lt;/div&gt;&lt;div&gt;&lt;font style=&quot;color: light-dark(rgb(130, 179, 102), rgb(237, 237, 237));&quot; face=&quot;Courier New&quot;&gt;&lt;b&gt;&lt;span style=&quot;white-space: pre;&quot;&gt;&#x9;&lt;/span&gt;yocto metadata&lt;/b&gt;&lt;/font&gt;&lt;/div&gt;&lt;div&gt;&lt;font style=&quot;color: light-dark(rgb(130, 179, 102), rgb(237, 237, 237));&quot; face=&quot;Courier New&quot;&gt;&lt;b&gt;&lt;span style=&quot;white-space: pre;&quot;&gt;&#x9;&lt;span style=&quot;white-space: pre;&quot;&gt;&#x9;&lt;/span&gt;&lt;/span&gt;UPC-RMC = infosys bitbucket, mirroring rdkcentral&lt;/b&gt;&lt;/font&gt;&lt;/div&gt;&lt;div&gt;&lt;font style=&quot;color: light-dark(rgb(130, 179, 102), rgb(237, 237, 237));&quot; face=&quot;Courier New&quot;&gt;&lt;b&gt;&lt;br&gt;&lt;/b&gt;&lt;/font&gt;&lt;/div&gt;&lt;div&gt;&lt;font style=&quot;color: light-dark(rgb(130, 179, 102), rgb(237, 237, 237));&quot; face=&quot;Courier New&quot;&gt;&lt;b&gt;&lt;span style=&quot;white-space: pre;&quot;&gt;&#x9;&lt;/span&gt;rdk metadata&lt;/b&gt;&lt;/font&gt;&lt;/div&gt;&lt;div&gt;&lt;font style=&quot;color: light-dark(rgb(130, 179, 102), rgb(237, 237, 237));&quot; face=&quot;Courier New&quot;&gt;&lt;b&gt;&lt;span style=&quot;white-space: pre;&quot;&gt;&#x9;&lt;span style=&quot;white-space: pre;&quot;&gt;&#x9;&lt;/span&gt;&lt;/span&gt;directly from cmf on rdkcentral, not yet mirrored&lt;/b&gt;&lt;/font&gt;&lt;/div&gt;&lt;div&gt;&lt;font face=&quot;Courier New&quot;&gt;&lt;b&gt;&lt;br&gt;&lt;/b&gt;&lt;/font&gt;&lt;/div&gt;&lt;div&gt;&lt;font style=&quot;color: light-dark(rgb(108, 142, 191), rgb(237, 237, 237));&quot; face=&quot;Courier New&quot;&gt;&lt;b&gt;&lt;span style=&quot;white-space: pre;&quot;&gt;&#x9;&lt;/span&gt;intel/mxl metadata&lt;/b&gt;&lt;/font&gt;&lt;/div&gt;&lt;div&gt;&lt;font style=&quot;color: light-dark(rgb(108, 142, 191), rgb(237, 237, 237));&quot; face=&quot;Courier New&quot;&gt;&lt;b&gt;&lt;span style=&quot;white-space: pre;&quot;&gt;&#x9;&lt;span style=&quot;white-space: pre;&quot;&gt;&#x9;&lt;/span&gt;&lt;/span&gt;UPC-RMI = infosys bitbucket, mirroring intel/mxl&lt;/b&gt;&lt;/font&gt;&lt;/div&gt;&lt;div&gt;&lt;font face=&quot;Courier New&quot;&gt;&lt;br&gt;&lt;/font&gt;&lt;/div&gt;&lt;div&gt;&lt;font face=&quot;Courier New&quot;&gt;source:&lt;/font&gt;&lt;/div&gt;&lt;div&gt;&lt;span style=&quot;font-family: &amp;quot;Courier New&amp;quot;; background-color: transparent; color: light-dark(rgb(51, 51, 51), rgb(193, 193, 193)); white-space: pre;&quot;&gt;&#x9;&lt;/span&gt;&lt;span style=&quot;font-family: &amp;quot;Courier New&amp;quot;; background-color: transparent; color: light-dark(rgb(51, 51, 51), rgb(193, 193, 193));&quot;&gt;package source repos are downloaded as part of the repo sync&lt;/span&gt;&lt;/div&gt;&lt;div&gt;&lt;font face=&quot;Courier New&quot;&gt;&lt;span style=&quot;white-space: pre;&quot;&gt;&#x9;&lt;/span&gt;during bitbake these are fetched using the local &#39;file:&#39; protocol&lt;/font&gt;&lt;/div&gt;&lt;div&gt;&lt;font face=&quot;Courier New&quot;&gt;&lt;br&gt;&lt;/font&gt;&lt;/div&gt;&lt;div&gt;&lt;font face=&quot;Courier New&quot;&gt;&lt;span style=&quot;white-space: pre;&quot;&gt;&#x9;&lt;/span&gt;other package sources which are not pre-downloaded during repo sync will be obtained from oss git repos&lt;/font&gt;&lt;/div&gt;" style="rounded=0;whiteSpace=wrap;html=1;verticalAlign=top;align=left;strokeColor=#666666;fillColor=#f5f5f5;fontColor=#333333;fontSize=14;" vertex="1" parent="1">
          <mxGeometry x="-1200" y="-1610" width="1040" height="410" as="geometry" />
        </mxCell>
        <mxCell id="ZiwmfGuqBUQpRH041LdQ-4" value="" style="edgeStyle=orthogonalEdgeStyle;rounded=0;orthogonalLoop=1;jettySize=auto;html=1;fillColor=#d5e8d4;strokeColor=#82b366;strokeWidth=2;" edge="1" parent="1" source="9YHusS_Nf4n6Y_lfbO36-1" target="viVxv3WKHKFQd3w1aEIA-5">
          <mxGeometry relative="1" as="geometry">
            <mxPoint x="-1335" y="-2020" as="targetPoint" />
            <Array as="points">
              <mxPoint x="-1335" y="-1600" />
            </Array>
          </mxGeometry>
        </mxCell>
        <mxCell id="9YHusS_Nf4n6Y_lfbO36-1" value="&lt;b&gt;oe&lt;/b&gt;&lt;div&gt;&lt;br&gt;&lt;/div&gt;&lt;div&gt;&lt;div style=&quot;text-align: left;&quot;&gt;&lt;span style=&quot;background-color: transparent;&quot;&gt;openembedded-core/&lt;/span&gt;bitbake/&lt;/div&gt;&lt;/div&gt;" style="rounded=1;whiteSpace=wrap;html=1;verticalAlign=top;fillColor=#d5e8d4;strokeColor=#82b366;strokeWidth=3;fontColor=light-dark(#82b366, #ededed);" vertex="1" parent="1">
          <mxGeometry x="-1440" y="-2160" width="210" height="60" as="geometry" />
        </mxCell>
        <mxCell id="9YHusS_Nf4n6Y_lfbO36-2" value="" style="edgeStyle=orthogonalEdgeStyle;rounded=0;orthogonalLoop=1;jettySize=auto;html=1;startArrow=none;startFill=0;endArrow=none;fillColor=#d5e8d4;strokeColor=#82b366;strokeWidth=3;fontColor=light-dark(#82b366, #ededed);" edge="1" parent="1" source="JB4W--CDRO3y1J96a5zg-14" target="9YHusS_Nf4n6Y_lfbO36-1">
          <mxGeometry relative="1" as="geometry">
            <mxPoint x="-1325" y="-2290" as="sourcePoint" />
            <mxPoint x="-1325" y="-2325" as="targetPoint" />
            <Array as="points" />
          </mxGeometry>
        </mxCell>
      </root>
    </mxGraphModel>
  </diagram>
  <diagram id="mZ1EEhh6A7frsXMejJzV" name="image-atom">
    <mxGraphModel dx="4448" dy="3944" grid="1" gridSize="10" guides="1" tooltips="1" connect="1" arrows="1" fold="1" page="1" pageScale="1" pageWidth="1100" pageHeight="850" math="0" shadow="0">
      <root>
        <mxCell id="0" />
        <mxCell id="1" parent="0" />
        <mxCell id="fYBn3Bp94C2r6A8CPXx_-1" value="&lt;b&gt;&lt;font style=&quot;font-size: 16px;&quot;&gt;rdk-generic-broadband-image.bb&lt;/font&gt;&lt;/b&gt;" style="rounded=1;whiteSpace=wrap;html=1;verticalAlign=top;fillColor=#fff2cc;strokeColor=#d6b656;strokeWidth=5;fontColor=light-dark(#d6b656, #ededed);" vertex="1" parent="1">
          <mxGeometry x="-2130" y="-2420" width="1320" height="960" as="geometry" />
        </mxCell>
        <mxCell id="fYBn3Bp94C2r6A8CPXx_-3" value="&lt;div&gt;&lt;b&gt;meta-rdk-soc-intel-puma7/&lt;/b&gt;&lt;b style=&quot;background-color: transparent;&quot;&gt;meta-rdkbos-compat&lt;/b&gt;&lt;/div&gt;&lt;div&gt;&lt;br&gt;&lt;/div&gt;rdk-generic-broadband-image.bbappend&lt;div&gt;&lt;br&gt;&lt;/div&gt;&lt;div&gt;IMAGE_INSTALL&amp;nbsp;&lt;/div&gt;&lt;div&gt;&lt;br&gt;&lt;/div&gt;&lt;div&gt;=&lt;/div&gt;&lt;div&gt;&lt;br&gt;&lt;/div&gt;&lt;div&gt;&lt;div&gt;iperf3&amp;nbsp;&lt;span style=&quot;background-color: transparent;&quot;&gt;acpid&amp;nbsp;&lt;/span&gt;&lt;span style=&quot;background-color: transparent;&quot;&gt;busybox&amp;nbsp;&lt;/span&gt;&lt;span style=&quot;background-color: transparent;&quot;&gt;initscripts&amp;nbsp;&lt;/span&gt;&lt;span style=&quot;background-color: transparent;&quot;&gt;usbutils&amp;nbsp;&lt;/span&gt;&lt;span style=&quot;background-color: transparent;&quot;&gt;sysd-init-scripts&amp;nbsp;&lt;/span&gt;&lt;span style=&quot;background-color: transparent;&quot;&gt;e2fsprogs&amp;nbsp;&lt;/span&gt;&lt;span style=&quot;background-color: transparent;&quot;&gt;kernel-modules&amp;nbsp;&lt;/span&gt;&lt;span style=&quot;background-color: transparent;&quot;&gt;api-proxy&amp;nbsp;&lt;/span&gt;&lt;span style=&quot;background-color: transparent;&quot;&gt;gim-proxy&amp;nbsp;&lt;/span&gt;&lt;span style=&quot;background-color: transparent;&quot;&gt;tlv-parser&amp;nbsp;&lt;/span&gt;&lt;span style=&quot;background-color: transparent;&quot;&gt;datapipe-mod&lt;/span&gt;&lt;/div&gt;&lt;div&gt;&lt;span style=&quot;background-color: transparent;&quot;&gt;network&amp;nbsp;&lt;/span&gt;&lt;span style=&quot;background-color: transparent;&quot;&gt;rpcbind&amp;nbsp;&lt;/span&gt;&lt;span style=&quot;background-color: transparent;&quot;&gt;rpc-management&amp;nbsp;&lt;/span&gt;&lt;span style=&quot;background-color: transparent;&quot;&gt;rpc-management-ifconfig&amp;nbsp;&lt;/span&gt;&lt;span style=&quot;background-color: transparent;&quot;&gt;rpc-management-rpcbind&amp;nbsp;&lt;/span&gt;&lt;span style=&quot;background-color: transparent;&quot;&gt;atom-swdl-utility&amp;nbsp;&lt;/span&gt;&lt;span style=&quot;background-color: transparent;&quot;&gt;pciutils&amp;nbsp;&lt;/span&gt;&lt;span style=&quot;background-color: transparent;&quot;&gt;ncp&amp;nbsp;&lt;/span&gt;&lt;span style=&quot;background-color: transparent;&quot;&gt;nvram&lt;/span&gt;&lt;/div&gt;&lt;div&gt;&lt;span style=&quot;background-color: transparent;&quot;&gt;mount-nvram&amp;nbsp;&lt;/span&gt;&lt;span style=&quot;background-color: transparent;&quot;&gt;ncpu-exec&amp;nbsp;&lt;/span&gt;&lt;span style=&quot;background-color: transparent;&quot;&gt;sdk-software-version-info&amp;nbsp;&lt;/span&gt;&lt;span style=&quot;background-color: transparent;&quot;&gt;ebtables&amp;nbsp;&lt;/span&gt;&lt;span style=&quot;background-color: transparent;&quot;&gt;interface-monitor&amp;nbsp;&lt;/span&gt;&lt;span style=&quot;background-color: transparent;&quot;&gt;conntrack-tools&amp;nbsp;&lt;/span&gt;&lt;span style=&quot;background-color: transparent;&quot;&gt;version-puma7-atom&lt;/span&gt;&lt;/div&gt;&lt;div&gt;&lt;span style=&quot;background-color: transparent;&quot;&gt;iproute2&amp;nbsp;&lt;/span&gt;&lt;span style=&quot;background-color: transparent;&quot;&gt;iptables&amp;nbsp;&lt;/span&gt;&lt;span style=&quot;background-color: transparent;&quot;&gt;sec-headers&amp;nbsp;&lt;/span&gt;&lt;span style=&quot;background-color: transparent;&quot;&gt;sec-linux-kernel-p7&amp;nbsp;&lt;/span&gt;&lt;span style=&quot;background-color: transparent;&quot;&gt;sec-lib&amp;nbsp;&lt;/span&gt;&lt;span style=&quot;background-color: transparent;&quot;&gt;ntp&amp;nbsp;&lt;/span&gt;&lt;span style=&quot;background-color: transparent;&quot;&gt;sec-fw-common&amp;nbsp;&lt;/span&gt;&lt;span style=&quot;background-color: transparent;&quot;&gt;trusted-store-lib&amp;nbsp;&lt;/span&gt;&lt;span style=&quot;background-color: transparent;&quot;&gt;netip-sec-server&amp;nbsp;&lt;/span&gt;&lt;span style=&quot;background-color: transparent;&quot;&gt;sec-pm-daemon&lt;/span&gt;&lt;/div&gt;&lt;div&gt;&lt;span style=&quot;background-color: transparent;&quot;&gt;sec-pm-notifier&amp;nbsp;&lt;/span&gt;&lt;span style=&quot;background-color: transparent;&quot;&gt;load-modules&amp;nbsp;&lt;/span&gt;&lt;span style=&quot;background-color: transparent;&quot;&gt;load-datapipe&amp;nbsp;&lt;/span&gt;&lt;span style=&quot;background-color: transparent;&quot;&gt;demux-fw&amp;nbsp;&lt;/span&gt;&lt;span style=&quot;background-color: transparent;&quot;&gt;ipset&amp;nbsp;&lt;/span&gt;&lt;span style=&quot;background-color: transparent;&quot;&gt;puma-power-app&amp;nbsp;&lt;/span&gt;&lt;span style=&quot;background-color: transparent;&quot;&gt;trower-base64&amp;nbsp;&lt;/span&gt;&lt;span style=&quot;background-color: transparent;&quot;&gt;watchdog&amp;nbsp;&lt;/span&gt;&lt;span style=&quot;background-color: transparent;&quot;&gt;puma7-reboot-app&lt;/span&gt;&lt;/div&gt;&lt;/div&gt;" style="rounded=1;whiteSpace=wrap;html=1;verticalAlign=top;fillColor=#fff2cc;strokeColor=#d6b656;fontColor=light-dark(#d6b656, #ededed);" vertex="1" parent="1">
          <mxGeometry x="-2060" y="-2380" width="740" height="220" as="geometry" />
        </mxCell>
        <mxCell id="fYBn3Bp94C2r6A8CPXx_-4" value="&lt;div&gt;&lt;b&gt;meta-rdk-soc-intel-puma7/&lt;/b&gt;&lt;b style=&quot;background-color: transparent;&quot;&gt;meta-gateway-infr&lt;/b&gt;&lt;/div&gt;&lt;div&gt;&lt;br&gt;&lt;/div&gt;rdk-generic-broadband-image.bbappend&lt;div&gt;&lt;br&gt;&lt;/div&gt;&lt;div&gt;IMAGE_INSTALL&lt;/div&gt;&lt;div&gt;&lt;br&gt;&lt;/div&gt;&lt;div&gt;=&amp;nbsp;&lt;/div&gt;&lt;div&gt;&lt;br&gt;&lt;/div&gt;&lt;div&gt;&lt;span style=&quot;background-color: transparent;&quot;&gt;ethtool&amp;nbsp;&lt;/span&gt;&lt;span style=&quot;background-color: transparent;&quot;&gt;api-proxy&amp;nbsp;&lt;/span&gt;&lt;span style=&quot;background-color: transparent;&quot;&gt;gim-proxy&amp;nbsp;&lt;/span&gt;&lt;span style=&quot;background-color: transparent;&quot;&gt;tlv-parser&amp;nbsp;&lt;/span&gt;&lt;span style=&quot;background-color: transparent;&quot;&gt;ncpu-exec&amp;nbsp;&lt;/span&gt;&lt;span style=&quot;background-color: transparent;&quot;&gt;ncp&lt;/span&gt;&lt;/div&gt;&lt;div&gt;&lt;div&gt;phy-sw-checker&amp;nbsp;&lt;span style=&quot;background-color: transparent;&quot;&gt;rdkb-common-hal&amp;nbsp;&lt;/span&gt;&lt;span style=&quot;background-color: transparent;&quot;&gt;rdkb-cable-modem-hal&lt;/span&gt;&lt;/div&gt;&lt;div&gt;rdkb-dhcp-hal&amp;nbsp;&lt;span style=&quot;background-color: transparent;&quot;&gt;rdkb-ethsw-hal&amp;nbsp;&lt;/span&gt;&lt;span style=&quot;background-color: transparent;&quot;&gt;rdkb-mta-hal&amp;nbsp;&lt;/span&gt;&lt;span style=&quot;background-color: transparent;&quot;&gt;rdkb-platform-hal&lt;/span&gt;&lt;/div&gt;&lt;div&gt;rdkb-vlan-hal&amp;nbsp;&lt;span style=&quot;background-color: transparent;&quot;&gt;rdkb-moca-hal&amp;nbsp;&lt;/span&gt;&lt;span style=&quot;background-color: transparent;&quot;&gt;uipc&amp;nbsp;&lt;/span&gt;&lt;span style=&quot;background-color: transparent;&quot;&gt;dhcp-utils&amp;nbsp;&lt;/span&gt;&lt;span style=&quot;background-color: transparent;&quot;&gt;ti-udhcp&lt;/span&gt;&lt;/div&gt;&lt;div&gt;ti-dhcpv6&amp;nbsp;&lt;span style=&quot;background-color: transparent;&quot;&gt;dhcpc-plugin-v4&amp;nbsp;&lt;/span&gt;&lt;span style=&quot;background-color: transparent;&quot;&gt;dhcpc-plugin-v6&amp;nbsp;&lt;/span&gt;&lt;span style=&quot;background-color: transparent;&quot;&gt;dhcp4capi-lib&amp;nbsp;&lt;/span&gt;&lt;span style=&quot;background-color: transparent;&quot;&gt;dhcp6capi-lib&lt;/span&gt;&lt;/div&gt;&lt;div&gt;kernel-crash-logger&amp;nbsp;&lt;span style=&quot;background-color: transparent;&quot;&gt;gw-lan-refresh&lt;/span&gt;&lt;/div&gt;&lt;/div&gt;" style="rounded=1;whiteSpace=wrap;html=1;verticalAlign=top;fillColor=#fff2cc;strokeColor=#d6b656;fontColor=light-dark(#d6b656, #ededed);" vertex="1" parent="1">
          <mxGeometry x="-1300" y="-2380" width="400" height="220" as="geometry" />
        </mxCell>
        <mxCell id="fYBn3Bp94C2r6A8CPXx_-5" value="&lt;div&gt;&lt;span style=&quot;background-color: transparent;&quot;&gt;packagegroup-rdk-&lt;/span&gt;&lt;/div&gt;&lt;div&gt;&lt;span style=&quot;background-color: transparent;&quot;&gt;oss-broadband.bb&lt;/span&gt;&lt;/div&gt;&lt;div&gt;&lt;span style=&quot;background-color: transparent;&quot;&gt;&lt;br&gt;&lt;/span&gt;&lt;/div&gt;&lt;div&gt;&lt;font style=&quot;background-color: transparent; font-size: 10px;&quot;&gt;bridge-utils&amp;nbsp;&lt;/font&gt;&lt;span style=&quot;background-color: transparent; font-size: 10px;&quot;&gt;curl&amp;nbsp;&lt;/span&gt;&lt;span style=&quot;background-color: transparent; font-size: 10px;&quot;&gt;dibbler-client&amp;nbsp;&lt;/span&gt;&lt;span style=&quot;background-color: transparent; font-size: 10px;&quot;&gt;dibbler-server&lt;/span&gt;&lt;/div&gt;&lt;div&gt;&lt;span style=&quot;background-color: transparent;&quot;&gt;&lt;div style=&quot;&quot;&gt;&lt;font style=&quot;font-size: 10px;&quot;&gt;dhcp-client&amp;nbsp;&lt;/font&gt;&lt;span style=&quot;font-size: 10px; background-color: transparent;&quot;&gt;dhcp-server&amp;nbsp;&lt;/span&gt;&lt;span style=&quot;font-size: 10px; background-color: transparent;&quot;&gt;dhcp-server-config&lt;/span&gt;&lt;/div&gt;&lt;div style=&quot;&quot;&gt;&lt;font style=&quot;font-size: 10px;&quot;&gt;dnsmasq&amp;nbsp;&lt;/font&gt;&lt;span style=&quot;font-size: 10px; background-color: transparent;&quot;&gt;dropbear&amp;nbsp;&lt;/span&gt;&lt;span style=&quot;font-size: 10px; background-color: transparent;&quot;&gt;expat&amp;nbsp;&lt;/span&gt;&lt;span style=&quot;font-size: 10px; background-color: transparent;&quot;&gt;ez-ipupdate&lt;/span&gt;&lt;/div&gt;&lt;div style=&quot;&quot;&gt;&lt;font style=&quot;font-size: 10px;&quot;&gt;fcgi&amp;nbsp;&lt;/font&gt;&lt;span style=&quot;font-size: 10px; background-color: transparent;&quot;&gt;glib-2.0&amp;nbsp;&lt;/span&gt;&lt;span style=&quot;font-size: 10px; background-color: transparent;&quot;&gt;gnutls&amp;nbsp;&lt;/span&gt;&lt;span style=&quot;font-size: 10px; background-color: transparent;&quot;&gt;igmpproxy&amp;nbsp;&lt;/span&gt;&lt;span style=&quot;font-size: 10px; background-color: transparent;&quot;&gt;iksemel&lt;/span&gt;&lt;/div&gt;&lt;div style=&quot;&quot;&gt;&lt;font style=&quot;font-size: 10px;&quot;&gt;iproute2&amp;nbsp;&lt;/font&gt;&lt;span style=&quot;font-size: 10px; background-color: transparent;&quot;&gt;iptables&amp;nbsp;&lt;/span&gt;&lt;span style=&quot;font-size: 10px; background-color: transparent;&quot;&gt;jansson&amp;nbsp;&lt;/span&gt;&lt;span style=&quot;font-size: 10px; background-color: transparent;&quot;&gt;libgcrypt&amp;nbsp;&lt;/span&gt;&lt;span style=&quot;font-size: 10px; background-color: transparent;&quot;&gt;libgpg-error&lt;/span&gt;&lt;/div&gt;&lt;div style=&quot;&quot;&gt;&lt;font style=&quot;font-size: 10px;&quot;&gt;libmtp&amp;nbsp;&lt;/font&gt;&lt;span style=&quot;font-size: 10px; background-color: transparent;&quot;&gt;libnetfilter-queue&amp;nbsp;&lt;/span&gt;&lt;span style=&quot;font-size: 10px; background-color: transparent;&quot;&gt;libnetfilter-conntrack&lt;/span&gt;&lt;/div&gt;&lt;div style=&quot;&quot;&gt;&lt;font style=&quot;font-size: 10px;&quot;&gt;libnl&amp;nbsp;&lt;/font&gt;&lt;span style=&quot;font-size: 10px; background-color: transparent;&quot;&gt;libpcre&amp;nbsp;&lt;/span&gt;&lt;span style=&quot;font-size: 10px; background-color: transparent;&quot;&gt;libtinyxml&amp;nbsp;&lt;/span&gt;&lt;span style=&quot;font-size: 10px; background-color: transparent;&quot;&gt;libupnp&lt;/span&gt;&lt;/div&gt;&lt;div style=&quot;&quot;&gt;&lt;font style=&quot;font-size: 10px;&quot;&gt;libxml2&amp;nbsp;&lt;/font&gt;&lt;span style=&quot;font-size: 10px; background-color: transparent;&quot;&gt;lighttpd&amp;nbsp;&lt;/span&gt;&lt;span style=&quot;font-size: 10px; background-color: transparent;&quot;&gt;log4c&amp;nbsp;&lt;/span&gt;&lt;span style=&quot;font-size: 10px; background-color: transparent;&quot;&gt;logrotate&lt;/span&gt;&lt;/div&gt;&lt;div style=&quot;&quot;&gt;&lt;font style=&quot;font-size: 10px;&quot;&gt;miniupnpd&amp;nbsp;&lt;/font&gt;&lt;span style=&quot;font-size: 10px; background-color: transparent;&quot;&gt;mtd-utils-ubifs&amp;nbsp;&lt;/span&gt;&lt;span style=&quot;font-size: 10px; background-color: transparent;&quot;&gt;neon&lt;/span&gt;&lt;/div&gt;&lt;div style=&quot;&quot;&gt;&lt;font style=&quot;font-size: 10px;&quot;&gt;openssl&amp;nbsp;&lt;/font&gt;&lt;span style=&quot;font-size: 10px; background-color: transparent;&quot;&gt;popt&amp;nbsp;&lt;/span&gt;&lt;span style=&quot;font-size: 10px; background-color: transparent;&quot;&gt;quagga&amp;nbsp;&lt;/span&gt;&lt;span style=&quot;font-size: 10px; background-color: transparent;&quot;&gt;smartmontools&lt;/span&gt;&lt;/div&gt;&lt;div style=&quot;&quot;&gt;&lt;font style=&quot;font-size: 10px;&quot;&gt;spawn-fcgi&amp;nbsp;&lt;/font&gt;&lt;span style=&quot;font-size: 10px; background-color: transparent;&quot;&gt;ssmtp&amp;nbsp;&lt;/span&gt;&lt;span style=&quot;font-size: 10px; background-color: transparent;&quot;&gt;yajl&amp;nbsp;&lt;/span&gt;&lt;span style=&quot;font-size: 10px; background-color: transparent;&quot;&gt;zlib&lt;/span&gt;&lt;/div&gt;&lt;div style=&quot;&quot;&gt;&lt;font style=&quot;font-size: 10px;&quot;&gt;smcroute&amp;nbsp;&lt;/font&gt;&lt;span style=&quot;font-size: 10px; background-color: transparent;&quot;&gt;libsyswrapper&amp;nbsp;&lt;/span&gt;&lt;span style=&quot;font-size: 10px; background-color: transparent;&quot;&gt;safec&lt;/span&gt;&lt;/div&gt;&lt;div style=&quot;&quot;&gt;&lt;font style=&quot;font-size: 10px;&quot;&gt;net-snmp-client net-snmp-server&lt;/font&gt;&lt;/div&gt;&lt;div style=&quot;&quot;&gt;&lt;font style=&quot;font-size: 10px;&quot;&gt;net-snmp-mibs net-snmp-server-snmpd&lt;/font&gt;&lt;/div&gt;&lt;/span&gt;&lt;/div&gt;" style="rounded=1;whiteSpace=wrap;html=1;verticalAlign=top;fillColor=#dae8fc;strokeColor=#6c8ebf;strokeWidth=4;fontSize=20;fontColor=light-dark(#7193c2, #ededed);" vertex="1" parent="1">
          <mxGeometry x="-2090" y="-2090" width="220" height="540" as="geometry" />
        </mxCell>
        <mxCell id="fYBn3Bp94C2r6A8CPXx_-6" value="&lt;div&gt;&lt;span style=&quot;background-color: transparent;&quot;&gt;packagegroup-rdk-&lt;/span&gt;&lt;/div&gt;&lt;div&gt;&lt;span style=&quot;background-color: transparent;&quot;&gt;ccsp-broadband.bb&lt;/span&gt;&lt;/div&gt;&lt;div&gt;&lt;span style=&quot;background-color: transparent;&quot;&gt;&lt;br&gt;&lt;/span&gt;&lt;/div&gt;&lt;div&gt;&lt;span style=&quot;font-size: 10px; background-color: transparent;&quot;&gt;rbus-core rbus ccsp-common-library ccsp-common-startup utopia ccsp-cm-agent ccsp-cr ccsp-cr-ccsp ccsp-dmcli&lt;/span&gt;&lt;/div&gt;&lt;div&gt;&lt;span style=&quot;background-color: transparent;&quot;&gt;&lt;font style=&quot;&quot;&gt;&lt;div style=&quot;&quot;&gt;&lt;span style=&quot;font-size: 10px;&quot;&gt;ccsp-dmcli-ccsp ccsp-home-security ccsp-lm-lite ccsp-lm-lite-ccsp ccsp-adv-security ccsp-xdns ccsp-misc&amp;nbsp;&lt;/span&gt;&lt;/div&gt;&lt;div style=&quot;&quot;&gt;&lt;span style=&quot;font-size: 10px;&quot;&gt;ccsp-misc-ccsp ccsp-eth-agent ccsp-mta-agent&lt;/span&gt;&lt;/div&gt;&lt;div style=&quot;&quot;&gt;&lt;span style=&quot;font-size: 10px;&quot;&gt;ccsp-mta-agent-ccsp ccsp-p-and-m ccsp-moca&lt;/span&gt;&lt;/div&gt;&lt;div style=&quot;&quot;&gt;&lt;span style=&quot;font-size: 10px;&quot;&gt;ccsp-moca-ccsp ccsp-p-and-m-ccsp ccsp-psm&lt;/span&gt;&lt;/div&gt;&lt;div style=&quot;&quot;&gt;&lt;span style=&quot;font-size: 10px;&quot;&gt;ccsp-psm-ccsp ccsp-tr069-pa ccsp-tr069-pa-ccsp&lt;/span&gt;&lt;/div&gt;&lt;div style=&quot;&quot;&gt;&lt;span style=&quot;font-size: 10px;&quot;&gt;sysint-broadband rfc test-and-diagnostic&lt;/span&gt;&lt;/div&gt;&lt;div style=&quot;&quot;&gt;&lt;span style=&quot;font-size: 10px;&quot;&gt;test-and-diagnostic-ccsp&amp;nbsp; ccsp-hotspot ccsp-hotspot-kmod&lt;/span&gt;&lt;/div&gt;&lt;div style=&quot;&quot;&gt;&lt;span style=&quot;font-size: 10px;&quot;&gt;ccsp-xconf hal-cm hal-dhcpv4c hal-ethsw hal-moca&lt;/span&gt;&lt;/div&gt;&lt;div style=&quot;&quot;&gt;&lt;span style=&quot;font-size: 10px;&quot;&gt;hal-mso_mgmt hal-mta hal-platform&lt;/span&gt;&lt;/div&gt;&lt;div style=&quot;&quot;&gt;&lt;span style=&quot;font-size: 10px;&quot;&gt;hal-vlan hal-wifi breakpad-wrapper&lt;/span&gt;&lt;/div&gt;&lt;div style=&quot;&quot;&gt;&lt;span style=&quot;font-size: 10px;&quot;&gt;xupnp parodus parodus2ccsp&lt;/span&gt;&lt;/div&gt;&lt;div style=&quot;&quot;&gt;&lt;span style=&quot;font-size: 10px;&quot;&gt;dca telemetry webconfig-framework&lt;/span&gt;&lt;/div&gt;&lt;div style=&quot;&quot;&gt;&lt;span style=&quot;font-size: 10px;&quot;&gt;ccsp-webui-jst ccsp-snmp-pa ccsp-snmp-pa-ccsp&lt;/span&gt;&lt;/div&gt;&lt;div style=&quot;&quot;&gt;&lt;span style=&quot;font-size: 10px;&quot;&gt;usp-pa ccsp-tr069-pa ccsp-tr069-pa-ccsp&lt;/span&gt;&lt;/div&gt;&lt;div style=&quot;&quot;&gt;&lt;span style=&quot;font-size: 10px;&quot;&gt;ccsp-common-library ccsp-wifi-agent&lt;/span&gt;&lt;/div&gt;&lt;div style=&quot;&quot;&gt;&lt;span style=&quot;font-size: 10px;&quot;&gt;ccsp-gwprovapp ccsp-gwprovapp-ccsp&lt;/span&gt;&lt;/div&gt;&lt;div style=&quot;&quot;&gt;&lt;span style=&quot;font-size: 10px;&quot;&gt;ccsp-cm-agent ccsp-cm-agent-ccsp&lt;/span&gt;&lt;/div&gt;&lt;div style=&quot;font-size: 10px;&quot;&gt;&lt;br&gt;&lt;/div&gt;&lt;/font&gt;&lt;/span&gt;&lt;/div&gt;&lt;div&gt;&lt;span style=&quot;background-color: transparent;&quot;&gt;&lt;br&gt;&lt;/span&gt;&lt;/div&gt;" style="rounded=1;whiteSpace=wrap;html=1;verticalAlign=top;fillColor=#d5e8d4;strokeColor=#82b366;strokeWidth=4;fontSize=20;fontColor=light-dark(#82b366, #ededed);" vertex="1" parent="1">
          <mxGeometry x="-1520" y="-2090" width="280" height="600" as="geometry" />
        </mxCell>
        <mxCell id="fYBn3Bp94C2r6A8CPXx_-7" value="&lt;div&gt;meta-rdk-broadband&lt;/div&gt;&lt;div&gt;&lt;span style=&quot;background-color: transparent;&quot;&gt;&lt;br&gt;&lt;/span&gt;&lt;/div&gt;&lt;div&gt;&lt;span style=&quot;background-color: transparent;&quot;&gt;packagegroup-rdk-oss-broadband.bbappend&lt;/span&gt;&lt;/div&gt;&lt;div&gt;&lt;span style=&quot;background-color: transparent;&quot;&gt;&lt;br&gt;&lt;/span&gt;&lt;/div&gt;&lt;div&gt;&lt;span style=&quot;background-color: transparent;&quot;&gt;RDEPENDS_&lt;/span&gt;&lt;/div&gt;&lt;div&gt;&lt;span style=&quot;background-color: transparent;&quot;&gt;packagegroup-rdk-&lt;/span&gt;&lt;span style=&quot;background-color: transparent;&quot;&gt;oss-&lt;/span&gt;&lt;span style=&quot;background-color: transparent;&quot;&gt;broadband_&lt;b&gt;remove&lt;/b&gt;&lt;/span&gt;&lt;/div&gt;&lt;div&gt;&lt;span style=&quot;background-color: transparent;&quot;&gt;&lt;br&gt;&lt;/span&gt;&lt;/div&gt;&lt;div&gt;&lt;span style=&quot;background-color: transparent;&quot;&gt;=&lt;/span&gt;&lt;/div&gt;&lt;div&gt;&lt;br&gt;&lt;/div&gt;&lt;div&gt;&lt;span style=&quot;background-color: transparent;&quot;&gt;&lt;i&gt;libmtp&lt;/i&gt;&lt;/span&gt;&lt;/div&gt;" style="rounded=1;whiteSpace=wrap;html=1;verticalAlign=top;fillColor=#dae8fc;strokeColor=#6c8ebf;fontColor=light-dark(#7193c2, #ededed);" vertex="1" parent="1">
          <mxGeometry x="-1860" y="-2090" width="320" height="220" as="geometry" />
        </mxCell>
        <mxCell id="fYBn3Bp94C2r6A8CPXx_-8" value="&lt;div&gt;meta-rdk-soc-intel-puma7&lt;/div&gt;&lt;div&gt;&lt;span style=&quot;background-color: transparent;&quot;&gt;&lt;br&gt;&lt;/span&gt;&lt;/div&gt;&lt;div&gt;&lt;span style=&quot;background-color: transparent;&quot;&gt;packagegroup-rdk-oss-broadband.bbappend&lt;/span&gt;&lt;/div&gt;&lt;div&gt;&lt;span style=&quot;background-color: transparent;&quot;&gt;&lt;br&gt;&lt;/span&gt;&lt;/div&gt;&lt;div&gt;&lt;span style=&quot;background-color: transparent;&quot;&gt;RDEPENDS_&lt;/span&gt;&lt;span style=&quot;background-color: transparent;&quot;&gt;packagegroup-rdk-&lt;/span&gt;&lt;span style=&quot;background-color: transparent;&quot;&gt;oss-b&lt;/span&gt;&lt;span style=&quot;background-color: transparent;&quot;&gt;roadband_&lt;b&gt;remove&lt;/b&gt;&amp;nbsp;&lt;/span&gt;&lt;/div&gt;&lt;div&gt;&lt;span style=&quot;background-color: transparent;&quot;&gt;&lt;br&gt;&lt;/span&gt;&lt;/div&gt;&lt;div&gt;&lt;span style=&quot;background-color: transparent;&quot;&gt;=&amp;nbsp;&lt;/span&gt;&lt;/div&gt;&lt;div&gt;&lt;span style=&quot;background-color: transparent;&quot;&gt;&lt;br&gt;&lt;/span&gt;&lt;/div&gt;&lt;div&gt;&lt;span style=&quot;background-color: transparent;&quot;&gt;&lt;div style=&quot;&quot;&gt;&lt;i&gt;alljoyn&amp;nbsp;&lt;span style=&quot;background-color: transparent;&quot;&gt;php&amp;nbsp;&lt;/span&gt;&lt;span style=&quot;background-color: transparent;&quot;&gt;php-cli&amp;nbsp;&lt;/span&gt;&lt;span style=&quot;background-color: transparent;&quot;&gt;libnetfilter-conntrack3&lt;/span&gt;&lt;/i&gt;&lt;/div&gt;&lt;div style=&quot;&quot;&gt;&lt;i&gt;net-snmp-server&amp;nbsp;&lt;span style=&quot;background-color: transparent;&quot;&gt;net-snmp-server-snmptrapd&lt;/span&gt;&lt;/i&gt;&lt;/div&gt;&lt;div style=&quot;&quot;&gt;&lt;i&gt;net-snmp-client&amp;nbsp;&lt;span style=&quot;background-color: transparent;&quot;&gt;igmpproxy&amp;nbsp;&lt;/span&gt;&lt;span style=&quot;background-color: transparent;&quot;&gt;dhcp-client&lt;/span&gt;&lt;/i&gt;&lt;/div&gt;&lt;div style=&quot;&quot;&gt;&lt;i&gt;dhcp-server&amp;nbsp;&lt;span style=&quot;background-color: transparent;&quot;&gt;dhcp-server-config&lt;/span&gt;&lt;/i&gt;&lt;/div&gt;&lt;div style=&quot;&quot;&gt;&lt;i&gt;smartmontools&amp;nbsp;&lt;span style=&quot;background-color: transparent;&quot;&gt;iksemel&lt;/span&gt;&lt;/i&gt;&lt;/div&gt;&lt;div style=&quot;&quot;&gt;&lt;i&gt;libmtp&amp;nbsp;&lt;span style=&quot;background-color: transparent;&quot;&gt;neon&amp;nbsp;&lt;/span&gt;&lt;/i&gt;&lt;i style=&quot;background-color: transparent;&quot;&gt;gssdp&amp;nbsp;&lt;span style=&quot;background-color: transparent;&quot;&gt;libsoup-2.4&lt;/span&gt;&lt;/i&gt;&lt;/div&gt;&lt;div style=&quot;&quot;&gt;&lt;i&gt;miniupnpd&amp;nbsp;&lt;span style=&quot;background-color: transparent;&quot;&gt;syslog-ng&amp;nbsp;&lt;/span&gt;&lt;/i&gt;&lt;/div&gt;&lt;/span&gt;&lt;/div&gt;" style="rounded=1;whiteSpace=wrap;html=1;verticalAlign=top;fillColor=#dae8fc;strokeColor=#6c8ebf;fontColor=light-dark(#7193c2, #ededed);" vertex="1" parent="1">
          <mxGeometry x="-1860" y="-1860" width="320" height="250" as="geometry" />
        </mxCell>
        <mxCell id="fYBn3Bp94C2r6A8CPXx_-9" value="&lt;div&gt;meta-cmf&lt;/div&gt;&lt;div&gt;&lt;span style=&quot;background-color: transparent;&quot;&gt;&lt;br&gt;&lt;/span&gt;&lt;/div&gt;&lt;div&gt;&lt;span style=&quot;background-color: transparent;&quot;&gt;packagegroup-rdk-ccsp-broadband.bbappend&lt;/span&gt;&lt;/div&gt;&lt;div&gt;&lt;span style=&quot;background-color: transparent;&quot;&gt;&lt;br&gt;&lt;/span&gt;&lt;/div&gt;&lt;div&gt;RDEPENDS_&lt;/div&gt;&lt;div&gt;packagegroup-rdk-&lt;span style=&quot;background-color: transparent;&quot;&gt;ccsp-&lt;/span&gt;&lt;span style=&quot;background-color: transparent;&quot;&gt;broadband_&lt;b&gt;append&lt;/b&gt;&lt;/span&gt;&lt;/div&gt;&lt;div&gt;&lt;span style=&quot;background-color: transparent;&quot;&gt;&lt;br&gt;&lt;/span&gt;&lt;/div&gt;&lt;div&gt;&lt;span style=&quot;background-color: transparent;&quot;&gt;=&lt;/span&gt;&lt;/div&gt;&lt;div&gt;&lt;br&gt;&lt;/div&gt;&lt;div&gt;&lt;span style=&quot;background-color: transparent;&quot;&gt;&lt;div style=&quot;&quot;&gt;&lt;i&gt;ccsp-epon-agent&amp;nbsp;&lt;span style=&quot;background-color: transparent;&quot;&gt;ccsp-xconf&amp;nbsp;&lt;/span&gt;&lt;span style=&quot;background-color: transparent;&quot;&gt;dcmjsonparser&amp;nbsp;&lt;/span&gt;&lt;span style=&quot;background-color: transparent;&quot;&gt;rdm&amp;nbsp;&lt;/span&gt;&lt;span style=&quot;background-color: transparent;&quot;&gt;memstress&lt;/span&gt;&lt;/i&gt;&lt;/div&gt;&lt;div style=&quot;&quot;&gt;&lt;i&gt;&lt;span style=&quot;background-color: transparent;&quot;&gt;mesh-agent&amp;nbsp;&lt;/span&gt;&lt;span style=&quot;background-color: transparent;&quot;&gt;notify-comp&amp;nbsp;&lt;/span&gt;&lt;span style=&quot;background-color: transparent;&quot;&gt;harvester&amp;nbsp;&lt;/span&gt;&lt;span style=&quot;background-color: transparent;&quot;&gt;ovs-agent&amp;nbsp;&lt;/span&gt;&lt;span style=&quot;background-color: transparent;&quot;&gt;powermgr&lt;/span&gt;&lt;/i&gt;&lt;/div&gt;&lt;div style=&quot;&quot;&gt;&lt;i&gt;&lt;span style=&quot;background-color: transparent;&quot;&gt;ipoe-health-check&amp;nbsp;&lt;/span&gt;&lt;span style=&quot;background-color: transparent;&quot;&gt;json-hal-lib&amp;nbsp;&lt;/span&gt;&lt;span style=&quot;background-color: transparent;&quot;&gt;rdkgponmanager&amp;nbsp;&lt;/span&gt;&lt;span style=&quot;background-color: transparent;&quot;&gt;rdkxdslmanager&lt;/span&gt;&lt;/i&gt;&lt;/div&gt;&lt;div style=&quot;&quot;&gt;&lt;i&gt;&lt;span style=&quot;background-color: transparent;&quot;&gt;rdk-wanmanager&amp;nbsp;&lt;/span&gt;&lt;span style=&quot;background-color: transparent;&quot;&gt;rdktelcovoicemanager&amp;nbsp;&lt;/span&gt;&lt;span style=&quot;background-color: transparent;&quot;&gt;rdk-vlanmanager&lt;/span&gt;&lt;/i&gt;&lt;/div&gt;&lt;div style=&quot;&quot;&gt;&lt;i&gt;&lt;span style=&quot;background-color: transparent;&quot;&gt;rdk-ppp-manager&amp;nbsp;&lt;/span&gt;&lt;span style=&quot;background-color: transparent;&quot;&gt;rdk-fwupgrade-manager&lt;/span&gt;&lt;/i&gt;&lt;/div&gt;&lt;/span&gt;&lt;/div&gt;" style="rounded=1;whiteSpace=wrap;html=1;verticalAlign=top;fillColor=#d5e8d4;strokeColor=#82b366;fontColor=light-dark(#82b366, #ededed);" vertex="1" parent="1">
          <mxGeometry x="-1220" y="-2090" width="360" height="230" as="geometry" />
        </mxCell>
        <mxCell id="fYBn3Bp94C2r6A8CPXx_-10" value="&lt;div&gt;meta-rdk-soc-intel-puma7/meta-rdkbos-compat/&lt;/div&gt;&lt;div&gt;&lt;span style=&quot;background-color: transparent;&quot;&gt;&lt;br&gt;&lt;/span&gt;&lt;/div&gt;&lt;div&gt;&lt;span style=&quot;background-color: transparent;&quot;&gt;packagegroup-rdk-oss-broadband.bbappend&lt;/span&gt;&lt;/div&gt;&lt;div&gt;&lt;span style=&quot;background-color: transparent;&quot;&gt;&lt;br&gt;&lt;/span&gt;&lt;/div&gt;&lt;div&gt;&lt;span style=&quot;background-color: transparent;&quot;&gt;RDEPENDS_&lt;/span&gt;&lt;/div&gt;&lt;div&gt;&lt;span style=&quot;background-color: transparent;&quot;&gt;packagegroup-rdk-&lt;/span&gt;&lt;span style=&quot;background-color: transparent;&quot;&gt;ccsp-&lt;/span&gt;&lt;span style=&quot;background-color: transparent;&quot;&gt;broadband_&lt;b&gt;remove&lt;/b&gt;&lt;/span&gt;&lt;/div&gt;&lt;div&gt;&lt;span style=&quot;background-color: transparent;&quot;&gt;&lt;br&gt;&lt;/span&gt;&lt;/div&gt;&lt;div&gt;&lt;span style=&quot;background-color: transparent;&quot;&gt;=&lt;/span&gt;&lt;/div&gt;&lt;div&gt;&lt;br&gt;&lt;/div&gt;&lt;div&gt;&lt;span style=&quot;background-color: transparent;&quot;&gt;&lt;div style=&quot;&quot;&gt;&lt;i&gt;crashupload&amp;nbsp;&lt;span style=&quot;background-color: transparent;&quot;&gt;webpabroadband&lt;/span&gt;&lt;/i&gt;&lt;/div&gt;&lt;div style=&quot;&quot;&gt;&lt;i&gt;xupnp&amp;nbsp;&lt;span style=&quot;background-color: transparent;&quot;&gt;rdk-ppp-manager&lt;/span&gt;&lt;/i&gt;&lt;/div&gt;&lt;div style=&quot;&quot;&gt;&lt;i&gt;rdk-fwupgrade-manager&lt;/i&gt;&lt;/div&gt;&lt;div style=&quot;&quot;&gt;&lt;i&gt;rdkgponmanager&amp;nbsp;&lt;span style=&quot;background-color: transparent;&quot;&gt;rdk-vlanmanager&lt;/span&gt;&lt;/i&gt;&lt;/div&gt;&lt;div style=&quot;&quot;&gt;&lt;i&gt;rdktelcovoicemanager&amp;nbsp;&lt;span style=&quot;background-color: transparent;&quot;&gt;rdkxdslmanager&lt;/span&gt;&lt;/i&gt;&lt;/div&gt;&lt;div style=&quot;&quot;&gt;&lt;i&gt;ipoe-health-check&amp;nbsp;&lt;span style=&quot;background-color: transparent;&quot;&gt;rdk-wanmanager&lt;/span&gt;&lt;/i&gt;&lt;/div&gt;&lt;/span&gt;&lt;/div&gt;" style="rounded=1;whiteSpace=wrap;html=1;verticalAlign=top;fillColor=#d5e8d4;strokeColor=#82b366;fontColor=light-dark(#82b366, #ededed);" vertex="1" parent="1">
          <mxGeometry x="-1220" y="-1850" width="360" height="240" as="geometry" />
        </mxCell>
        <mxCell id="fYBn3Bp94C2r6A8CPXx_-11" value="&lt;b&gt;&lt;font style=&quot;font-size: 16px;&quot;&gt;meta-inango-plug&lt;/font&gt;&lt;/b&gt;&lt;div&gt;&lt;font&gt;&lt;br&gt;&lt;/font&gt;&lt;/div&gt;&lt;div&gt;&lt;font&gt;layer.conf&lt;/font&gt;&lt;/div&gt;&lt;div&gt;&lt;font&gt;&lt;br&gt;&lt;/font&gt;&lt;/div&gt;&lt;div&gt;&lt;font style=&quot;&quot;&gt;&lt;div style=&quot;&quot;&gt;&lt;font&gt;IMAGE_INSTALL_append&lt;/font&gt;&lt;/div&gt;&lt;div style=&quot;&quot;&gt;&lt;font&gt;&lt;br&gt;&lt;/font&gt;&lt;/div&gt;&lt;div style=&quot;&quot;&gt;&lt;font&gt;=&lt;/font&gt;&lt;/div&gt;&lt;div style=&quot;&quot;&gt;&lt;span style=&quot;background-color: transparent;&quot;&gt;&lt;br&gt;&lt;/span&gt;&lt;/div&gt;&lt;div style=&quot;&quot;&gt;&lt;span style=&quot;background-color: transparent;&quot;&gt;&lt;font style=&quot;font-size: 20px;&quot;&gt;packagegroup-inangoplug&lt;/font&gt;&lt;/span&gt;&lt;/div&gt;&lt;/font&gt;&lt;/div&gt;" style="rounded=1;whiteSpace=wrap;html=1;verticalAlign=top;fillColor=#fff2cc;strokeColor=#d6b656;strokeWidth=5;fontColor=light-dark(#d6b656, #ededed);" vertex="1" parent="1">
          <mxGeometry x="-780" y="-2420" width="360" height="180" as="geometry" />
        </mxCell>
        <mxCell id="a9ReO3jflQxaN03ReYzy-1" value="Image Composition is defined by : rdk-generic-broadband-image.bb image recipe" style="text;html=1;align=center;verticalAlign=middle;resizable=0;points=[];autosize=1;strokeColor=none;fillColor=none;fontSize=24;" vertex="1" parent="1">
          <mxGeometry x="-1860" y="-2520" width="890" height="40" as="geometry" />
        </mxCell>
        <mxCell id="Yz_Z3HtVL7nQ3N82ntbq-1" value="&lt;div&gt;&lt;br&gt;&lt;/div&gt;" style="text;html=1;align=left;verticalAlign=middle;resizable=0;points=[];autosize=1;strokeColor=none;fillColor=none;fontSize=15;" vertex="1" parent="1">
          <mxGeometry x="-780" y="-2085" width="20" height="30" as="geometry" />
        </mxCell>
        <mxCell id="283hjp61dj0hjOi57HVR-1" value="&lt;div style=&quot;forced-color-adjust: none;&quot;&gt;&lt;b&gt;&lt;font style=&quot;font-size: 14px;&quot;&gt;Image Composition is defined by the rdk-generic-broadband-image.bb image recipe&lt;/font&gt;&lt;/b&gt;&lt;/div&gt;&lt;div style=&quot;forced-color-adjust: none;&quot;&gt;&lt;br&gt;&lt;/div&gt;&lt;div style=&quot;forced-color-adjust: none;&quot;&gt;The rdk-generic-broadband-image recipe selects two package groups: OSS and CCSP, which add a default list of OSS and CCSP packages&lt;/div&gt;&lt;div style=&quot;forced-color-adjust: none;&quot;&gt;&lt;br&gt;&lt;/div&gt;&lt;div style=&quot;forced-color-adjust: none;&quot;&gt;OSS packagegroup receives a append from the meta-rdk-broadband layer which adds specific OSS packages&lt;/div&gt;&lt;div style=&quot;forced-color-adjust: none;&quot;&gt;OSS packagegroup receives a append from the puma7 soc layer which adds specific OSS packages&lt;/div&gt;&lt;div style=&quot;forced-color-adjust: none;&quot;&gt;&lt;br&gt;&lt;/div&gt;&lt;div style=&quot;forced-color-adjust: none;&quot;&gt;CCSP packagegroup receives a append from the puma7 soc layer which adds specific CCSP packages&lt;/div&gt;&lt;div style=&quot;forced-color-adjust: none;&quot;&gt;CCSP packagegroup receives a append from the meta-cmf layer which adds specific CCSP packages&lt;/div&gt;&lt;div style=&quot;forced-color-adjust: none;&quot;&gt;&lt;br&gt;&lt;/div&gt;&lt;div style=&quot;forced-color-adjust: none;&quot;&gt;&lt;div&gt;&lt;span style=&quot;background-color: transparent; color: light-dark(rgb(51, 51, 51), rgb(193, 193, 193));&quot;&gt;The rdk-generic-broadband-image recipe receives two appends from the puma7 soc layer which add puma7 soc specific packages&lt;/span&gt;&lt;/div&gt;&lt;div&gt;&lt;br&gt;&lt;/div&gt;&lt;/div&gt;&lt;div style=&quot;forced-color-adjust: none;&quot;&gt;&lt;br&gt;&lt;/div&gt;&lt;div style=&quot;forced-color-adjust: none;&quot;&gt;The meta-inango layer adds packagegroup-inango which adds the inangoplug packages&lt;/div&gt;" style="rounded=0;whiteSpace=wrap;html=1;align=left;strokeColor=light-dark(#a9a7a7, #959595);fillColor=#f5f5f5;fontColor=#333333;" vertex="1" parent="1">
          <mxGeometry x="-780" y="-1835" width="760" height="235" as="geometry" />
        </mxCell>
        <mxCell id="JEQXnSB2U6vWMIuERfiX-1" value="PREFERRED_PROVIDER_virtual/kernel=&quot;linux-yocto-cougarmountain-external&quot;&lt;div&gt;&lt;br&gt;&lt;/div&gt;&lt;div&gt;&lt;br&gt;&lt;/div&gt;&lt;div&gt;../meta-rdk-soc-intel-puma7/meta-cougarmountain/recipes-kernel/linux/linux-yocto-cougarmountain-external.bb&lt;/div&gt;" style="rounded=1;whiteSpace=wrap;html=1;fillColor=#e1d5e7;strokeColor=#9673a6;fontColor=light-dark(#9673a6, #ededed);strokeWidth=3;" vertex="1" parent="1">
          <mxGeometry x="-780" y="-2140" width="600" height="130" as="geometry" />
        </mxCell>
      </root>
    </mxGraphModel>
  </diagram>
  <diagram id="7Ax4FmAAIFXr6SyFTFBS" name="package-sizes">
    <mxGraphModel dx="1798" dy="1115" grid="1" gridSize="10" guides="1" tooltips="1" connect="1" arrows="1" fold="1" page="1" pageScale="1" pageWidth="1100" pageHeight="850" math="0" shadow="0">
      <root>
        <mxCell id="0" />
        <mxCell id="1" parent="0" />
        <UserObject label="❯ cat ./buildhistory/images/puma7_atom/glibc/rdk-generic-broadband-image/installed-package-sizes.txt&#xa;5202    KiB     kernel-image-bzimage-5.15.153-cougarmountain-cougarmountain&#xa;3750    KiB     systemd&#xa;3639    KiB     openvswitch&#xa;3364    KiB     ccsp-webui-jst&#xa;2876    KiB     libglib-2.0-0&#xa;2846    KiB     utopia&#xa;2705    KiB     libc6&#xa;2602    KiB     ccsp-p-and-m&#xa;2579    KiB     libccsp-common0&#xa;2516    KiB     shared-mime-info&#xa;2017    KiB     libsyslog-ng-3.24-0&#xa;1984    KiB     libcrypto1.1&#xa;1698    KiB     udev&#xa;1672    KiB     net-snmp-mibs&#xa;1474    KiB     libunistring2&#xa;1389    KiB     libstdc++6&#xa;1363    KiB     ccsp-wifi-agent&#xa;1194    KiB     libnetsnmpmibs35&#xa;1140    KiB     kernel-module-hil-drv-5.15.153-cougarmountain-cougarmountain&#xa;1032    KiB     libxml2&#xa;917     KiB     quagga&#xa;905     KiB     libgnutls28&#xa;809     KiB     usp-pa&#xa;803     KiB     dibbler-server&#xa;794     KiB     cli-menus&#xa;755     KiB     libsqlite3-0&#xa;745     KiB     dibbler-client&#xa;730     KiB     lxc&#xa;723     KiB     libnetsnmp35&#xa;710     KiB     libgcrypt&#xa;689     KiB     rbus&#xa;635     KiB     libsystemd0&#xa;631     KiB     iproute2&#xa;629     KiB     tcpdump&#xa;625     KiB     sec-fw-common&#xa;623     KiB     bash&#xa;611     KiB     ccsp-snmp-pa-ccsp&#xa;609     KiB     kernel-module-pp-drv-5.15.153-cougarmountain-cougarmountain&#xa;601     KiB     busybox&#xa;586     KiB     syslog-ng&#xa;575     KiB     json-schema-validator&#xa;570     KiB     libboost-program-options1.72.0&#xa;520     KiB     kbd&#xa;513     KiB     ntp&#xa;507     KiB     libdw1&#xa;490     KiB     test-and-diagnostic-ccsp&#xa;487     KiB     openssl-bin&#xa;467     KiB     sysint-broadband&#xa;463     KiB     libpcre&#xa;460     KiB     ccsp-tr069-pa&#xa;451     KiB     iptables&#xa;450     KiB     harvester&#xa;434     KiB     rbus-core&#xa;418     KiB     nettle&#xa;410     KiB     telemetry&#xa;410     KiB     ebtables&#xa;407     KiB     mtd-utils-ubifs&#xa;399     KiB     libssl1.1&#xa;390     KiB     libext2fs2&#xa;383     KiB     libnetfilter-conntrack&#xa;378     KiB     jst&#xa;368     KiB     libnetsnmpagent35&#xa;352     KiB     libfdisk1&#xa;343     KiB     libcurl4&#xa;338     KiB     test-and-diagnostic&#xa;337     KiB     e2fsprogs&#xa;327     KiB     libintel-phy211-hal&#xa;324     KiB     ccsp-lm-lite&#xa;323     KiB     puma-power-app&#xa;322     KiB     dbus-1&#xa;310     KiB     heaptrack&#xa;307     KiB     libwebsockets16&#xa;305     KiB     ipset&#xa;299     KiB     libmount1&#xa;297     KiB     libextswitch-rtl&#xa;293     KiB     dropbear&#xa;293     KiB     dnsmasq&#xa;290     KiB     ccsp-tr069-pa-ccsp&#xa;283     KiB     libevent-2.1-7&#xa;272     KiB     pciutils-ids&#xa;271     KiB     ccsp-snmp-pa&#xa;266     KiB     ethtool&#xa;263     KiB     lighttpd&#xa;259     KiB     libblkid1&#xa;259     KiB     e2fsprogs-e2fsck&#xa;258     KiB     conntrack-tools&#xa;255     KiB     openvswitch-switch&#xa;255     KiB     libdbus-1-3&#xa;234     KiB     libpcap1&#xa;227     KiB     json-hal-lib&#xa;223     KiB     mxl-mcast-service&#xa;219     KiB     ncpu-exec&#xa;215     KiB     libupnp&#xa;207     KiB     kernel-module-openvswitch-5.15.153-cougarmountain-cougarmountain&#xa;202     KiB     ca-certificates&#xa;196     KiB     libavro23.0.0&#xa;192     KiB     demux-fw&#xa;190     KiB     libgmp3&#xa;189     KiB     libcrypt2&#xa;178     KiB     libsmartcols1&#xa;175     KiB     libjsoncpp22&#xa;175     KiB     kernel-module-dwc-eth-qos-gbe-5.15.153-cougarmountain-cougarmountain&#xa;174     KiB     ti-dhcpv6&#xa;170     KiB     mesh-agent&#xa;169     KiB     rdm&#xa;169     KiB     ccsp-moca&#xa;167     KiB     rtmessage&#xa;166     KiB     libudev1&#xa;165     KiB     iperf3&#xa;159     KiB     sec-lib&#xa;159     KiB     libuv1&#xa;153     KiB     usbutils&#xa;152     KiB     ccsp-mta-agent&#xa;151     KiB     parodus2ccsp&#xa;151     KiB     kernel-module-swapi-mod-5.15.153-cougarmountain-cougarmountain&#xa;150     KiB     ccsp-cm-agent&#xa;149     KiB     kernel-module-sec-kernel-5.15.153-cougarmountain-cougarmountain&#xa;148     KiB     kernel-module-dwc-eth-qos-5.15.153-cougarmountain-cougarmountain&#xa;146     KiB     gptfdisk&#xa;143     KiB     ccsp-hotspot&#xa;139     KiB     libnanomsg5&#xa;136     KiB     ccsp-adv-security&#xa;135     KiB     libgpg-error&#xa;131     KiB     libtirpc3&#xa;131     KiB     ccsp-misc&#xa;130     KiB     iw&#xa;128     KiB     atom-swdl-utility&#xa;126     KiB     libidn2-0&#xa;125     KiB     libunwind&#xa;125     KiB     ccsp-eth-agent&#xa;124     KiB     ovs-agent&#xa;123     KiB     libtinfo5&#xa;121     KiB     kernel-5.15.153-cougarmountain-cougarmountain&#xa;121     KiB     iproute2-ss&#xa;117     KiB     libnl-3-200&#xa;117     KiB     libexpat1&#xa;116     KiB     ccsp-xdns&#xa;115     KiB     util-linux-fdisk&#xa;114     KiB     curl&#xa;112     KiB     yajl&#xa;110     KiB     libgcc1&#xa;110     KiB     kmod&#xa;108     KiB     log4c&#xa;108     KiB     ccsp-home-security&#xa;107     KiB     rdk-logger&#xa;107     KiB     kernel-module-phy2xx-macsec-5.15.153-cougarmountain-cougarmountain&#xa;107     KiB     e2fsprogs-mke2fs&#xa;107     KiB     ccsp-psm&#xa;106     KiB     util-linux-sfdisk&#xa;106     KiB     libnopoll0&#xa;102     KiB     rfc&#xa;102     KiB     libbreakpadwrapper0&#xa;101     KiB     liblzo2-2&#xa;101     KiB     extswitch&#xa;98      KiB     rdkb-mta-hal&#xa;95      KiB     shadow-base&#xa;94      KiB     ucresolv&#xa;94      KiB     parodus&#xa;94      KiB     iperf2&#xa;94      KiB     ccsp-cr&#xa;93      KiB     rdkb-vlan-hal&#xa;93      KiB     pam-plugin-unix&#xa;91      KiB     ccsp-gwprovapp-ethwan&#xa;90      KiB     util-linux-blkid&#xa;90      KiB     libelf1&#xa;89      KiB     rdkb-cable-modem-hal&#xa;88      KiB     rdkb-ethsw-hal&#xa;88      KiB     ccsp-xconf&#xa;86      KiB     libusb-1.0-0&#xa;86      KiB     libmosquitto1&#xa;85      KiB     kernel-module-fat-5.15.153-cougarmountain-cougarmountain&#xa;81      KiB     libextswitch-lantiq&#xa;81      KiB     acpid&#xa;78      KiB     libz1&#xa;77      KiB     ccsp-epon-agent&#xa;75      KiB     ovs-brcompat&#xa;74      KiB     libcares2&#xa;74      KiB     dhcpc-plugin-v6&#xa;73      KiB     libpam&#xa;73      KiB     libmoca-api20&#xa;73      KiB     fcgi&#xa;71      KiB     rdkb-moca-hal&#xa;70      KiB     slibc&#xa;70      KiB     libsafec-3.5.1-3&#xa;66      KiB     util-linux-lsipc&#xa;66      KiB     libwebconfig-framework0&#xa;66      KiB     libkmod2&#xa;66      KiB     libcap-bin&#xa;66      KiB     kernel-module-libcomposite-5.15.153-cougarmountain-cougarmountain&#xa;65      KiB     pp-fw&#xa;65      KiB     ccsp-dmcli&#xa;63      KiB     logrotate&#xa;63      KiB     kernel-module-usb-f-mass-storage-5.15.153-cougarmountain-cougarmountain&#xa;62      KiB     ccsp-gwprovapp&#xa;60      KiB     dca&#xa;58      KiB     util-linux-su&#xa;58      KiB     util-linux-runuser&#xa;58      KiB     libtinyxml2.6.2&#xa;58      KiB     libjson-c5&#xa;56      KiB     ez-ipupdate&#xa;55      KiB     rdkb-platform-hal&#xa;54      KiB     ti-udhcp&#xa;54      KiB     libev4&#xa;53      KiB     libhal-wifi0&#xa;53      KiB     intelce-nvram-mngr&#xa;51      KiB     util-linux-findmnt&#xa;51      KiB     kernel-module-dpd-netdev-5.15.153-cougarmountain-cougarmountain&#xa;50      KiB     util-linux-agetty&#xa;50      KiB     inangoplug-rsc&#xa;49      KiB     inangoplug-chandler&#xa;48      KiB     kernel-module-pdsp-drv-5.15.153-cougarmountain-cougarmountain&#xa;47      KiB     cjson&#xa;46      KiB     libpci3&#xa;46      KiB     libjansson4&#xa;45      KiB     kernel-module-configfs-5.15.153-cougarmountain-cougarmountain&#xa;45      KiB     dhcpc-plugin-v4&#xa;44      KiB     interface-monitor&#xa;43      KiB     rpc-management&#xa;43      KiB     libcap2&#xa;43      KiB     intelce-icc&#xa;43      KiB     arm-cli&#xa;42      KiB     util-linux-mount&#xa;42      KiB     libpopt0&#xa;42      KiB     inangoplug-mngm&#xa;41      KiB     trusted-store-lib&#xa;40      KiB     kernel-module-toe-drv-5.15.153-cougarmountain-cougarmountain&#xa;40      KiB     intelce-logger&#xa;39      KiB     smcroute&#xa;39      KiB     kernel-module-sgc-drv-5.15.153-cougarmountain-cougarmountain&#xa;39      KiB     initscripts&#xa;38      KiB     util-linux-sulogin&#xa;38      KiB     util-linux-fsck&#xa;38      KiB     rpcbind&#xa;36      KiB     extswitch-init&#xa;35      KiB     libsyswrapper&#xa;35      KiB     kernel-module-moca-netdev-driver-5.15.153-cougarmountain-cougarmountain&#xa;34      KiB     util-linux-mkfs.cramfs&#xa;34      KiB     util-linux-last&#xa;34      KiB     notify-comp&#xa;34      KiB     lighttpd-module-openssl&#xa;34      KiB     kernel-module-mcast-helper-5.15.153-cougarmountain-cougarmountain&#xa;33      KiB     api-proxy&#xa;31      KiB     pcregrep&#xa;31      KiB     libe2p2&#xa;30      KiB     util-linux-uuidd&#xa;30      KiB     util-linux-unshare&#xa;30      KiB     util-linux-umount&#xa;30      KiB     util-linux-rfkill&#xa;30      KiB     util-linux-fsck.cramfs&#xa;30      KiB     rdkb-dhcp-hal&#xa;30      KiB     lighttpd-module-ssi&#xa;30      KiB     lighttpd-module-dirlisting&#xa;29      KiB     libmsgpackc2&#xa;29      KiB     kernel-module-usb-f-ncm-5.15.153-cougarmountain-cougarmountain&#xa;28      KiB     kernel-module-wbsd-5.15.153-cougarmountain-cougarmountain&#xa;28      KiB     kernel-module-cable-netdev-5.15.153-cougarmountain-cougarmountain&#xa;27      KiB     watchdog&#xa;27      KiB     puma-tzctl&#xa;27      KiB     intelce-logger-daemon&#xa;26      KiB     ssmtp&#xa;26      KiB     libuuid1&#xa;26      KiB     libnl-genl-3-200&#xa;26      KiB     libmnl0&#xa;26      KiB     libffi7&#xa;26      KiB     hal-gwprovappabs&#xa;26      KiB     e2fsprogs-dumpe2fs&#xa;25      KiB     wdmp-c&#xa;25      KiB     sec-pm-daemon&#xa;25      KiB     libnfnetlink0&#xa;25      KiB     libnetfilter-queue1&#xa;25      KiB     libatomic1&#xa;25      KiB     kernel-module-system-monitor-5.15.153-cougarmountain-cougarmountain&#xa;25      KiB     gim-proxy&#xa;25      KiB     bridge-utils&#xa;24      KiB     mocad-proxy&#xa;24      KiB     libprivilege0&#xa;23      KiB     pciutils&#xa;23      KiB     libpam-runtime&#xa;23      KiB     kernel-module-ovs-hw-acceleration-5.15.153-cougarmountain-cougarmountain&#xa;22      KiB     spawn-fcgi&#xa;22      KiB     rpcinfo&#xa;22      KiB     lxccpid&#xa;22      KiB     lighttpd-module-cgi&#xa;22      KiB     lighttpd-module-accesslog&#xa;22      KiB     libss2&#xa;22      KiB     libparodus&#xa;22      KiB     kernel-module-u-ether-5.15.153-cougarmountain-cougarmountain&#xa;22      KiB     e2fsprogs-badblocks&#xa;21      KiB     wrp-c&#xa;21      KiB     util-linux-addpart&#xa;21      KiB     openssl-conf&#xa;21      KiB     netip-sec-server&#xa;21      KiB     ncurses-terminfo-base&#xa;21      KiB     ncp&#xa;20      KiB     kernel-module-pch-dma-5.15.153-cougarmountain-cougarmountain&#xa;19      KiB     kernel-module-vfat-5.15.153-cougarmountain-cougarmountain&#xa;18      KiB     util-linux-readprofile&#xa;18      KiB     powermgr&#xa;18      KiB     netbase&#xa;18      KiB     lighttpd-module-authn-file&#xa;18      KiB     lighttpd-module-auth&#xa;18      KiB     libnetfilter-cttimeout1&#xa;18      KiB     liblinenoise1.0&#xa;18      KiB     kernel-module-mcs-drv-5.15.153-cougarmountain-cougarmountain&#xa;17      KiB     pam-plugin-limits&#xa;17      KiB     pam-plugin-lastlog&#xa;17      KiB     pam-plugin-env&#xa;17      KiB     libattr1&#xa;17      KiB     gwcommonutils&#xa;16      KiB     puma-startup&#xa;16      KiB     net-snmp-server-snmpd&#xa;14      KiB     util-linux-switch-root&#xa;14      KiB     util-linux-setarch&#xa;14      KiB     memstress&#xa;14      KiB     lighttpd-module-secdownload&#xa;14      KiB     kernel-module-mth-macdb-5.15.153-cougarmountain-cougarmountain&#xa;14      KiB     intelce-cc-init-once&#xa;14      KiB     inangoplug-rsc-proxy&#xa;14      KiB     cjwt&#xa;13      KiB     util-linux-uuidgen&#xa;13      KiB     util-linux-pivot-root&#xa;13      KiB     util-linux-nologin&#xa;13      KiB     util-linux-mountpoint&#xa;13      KiB     util-linux-mkfs&#xa;13      KiB     util-linux-getopt&#xa;13      KiB     uipc&#xa;13      KiB     tlv-parser&#xa;13      KiB     system-utils&#xa;13      KiB     sec-pm-notifier&#xa;13      KiB     sched&#xa;13      KiB     rdkb-common-hal&#xa;13      KiB     puma7-reboot-app&#xa;13      KiB     phy-sw-checker&#xa;13      KiB     pam-plugin-warn&#xa;13      KiB     pam-plugin-shells&#xa;13      KiB     pam-plugin-securetty&#xa;13      KiB     pam-plugin-rootok&#xa;13      KiB     pam-plugin-permit&#xa;13      KiB     pam-plugin-nologin&#xa;13      KiB     pam-plugin-motd&#xa;13      KiB     pam-plugin-mail&#xa;13      KiB     pam-plugin-group&#xa;13      KiB     pam-plugin-faildelay&#xa;13      KiB     pam-plugin-deny&#xa;13      KiB     ntp-tickadj&#xa;13      KiB     mxl-mcast-libfapi&#xa;13      KiB     mxl-mcast-cli&#xa;13      KiB     lighttpd-module-staticfile&#xa;13      KiB     lighttpd-module-setenv&#xa;13      KiB     lighttpd-module-rewrite&#xa;13      KiB     lighttpd-module-redirect&#xa;13      KiB     lighttpd-module-indexfile&#xa;13      KiB     lighttpd-module-access&#xa;13      KiB     libtrower-base64-1.0.0&#xa;13      KiB     libtime-capture0&#xa;13      KiB     libpcreposix0&#xa;13      KiB     libintel-phy11g-hal&#xa;13      KiB     libhal-pon0&#xa;13      KiB     libhal-msomgmt0&#xa;13      KiB     libcom-err2&#xa;13      KiB     libcimplog1.0.0&#xa;13      KiB     intelce-shmdb&#xa;13      KiB     gw-lan-refresh&#xa;13      KiB     gw-ipc-svr&#xa;13      KiB     extswitch-ctrl&#xa;13      KiB     dhcp-utils&#xa;13      KiB     dhcp6capi-lib&#xa;13      KiB     dhcp4capi-lib&#xa;13      KiB     dcmjsonparser&#xa;12      KiB     kernel-module-g-mass-storage-5.15.153-cougarmountain-cougarmountain&#xa;12      KiB     kernel-module-brmtumod-5.15.153-cougarmountain-cougarmountain&#xa;12      KiB     ccsp-lm-lite-ccsp&#xa;11      KiB     kernel-module-puma7-pp-init-5.15.153-cougarmountain-cougarmountain&#xa;10      KiB     volatile-binds&#xa;10      KiB     kernel-module-g-ncm-5.15.153-cougarmountain-cougarmountain&#xa;8       KiB     testmode&#xa;8       KiB     overlay-rootfs&#xa;7       KiB     ccsp-moca-ccsp&#xa;6       KiB     nvram&#xa;6       KiB     kernel-module-nsh-5.15.153-cougarmountain-cougarmountain&#xa;6       KiB     kernel-module-nlmon-5.15.153-cougarmountain-cougarmountain&#xa;5       KiB     system-monitor&#xa;5       KiB     sysd-init-scripts&#xa;5       KiB     sec-linux-kernel-p7&#xa;5       KiB     rpc-management-ifconfig&#xa;5       KiB     load-modules&#xa;5       KiB     kernel-module-mdio-bitbang-5.15.153-cougarmountain-cougarmountain&#xa;4       KiB     rpc-management-rpcbind&#xa;4       KiB     kernel-module-vport-gre-5.15.153-cougarmountain-cougarmountain&#xa;4       KiB     kernel-module-mpls-gso-5.15.153-cougarmountain-cougarmountain&#xa;4       KiB     gtest-apps&#xa;4       KiB     ccsp-cr-ccsp&#xa;4       KiB     ccsp-common-startup&#xa;4       KiB     base-files&#xa;3       KiB     mount-nvram&#xa;3       KiB     kernel-module-crc8-5.15.153-cougarmountain-cougarmountain&#xa;3       KiB     kernel-module-cordic-5.15.153-cougarmountain-cougarmountain&#xa;3       KiB     kernel-crash-logger&#xa;3       KiB     inangoplug-rsc-init-atom-systemd&#xa;3       KiB     datapipe-mod&#xa;2       KiB     shadow-securetty&#xa;2       KiB     sdk-software-version-info&#xa;2       KiB     puma7-bootcounter&#xa;2       KiB     load-datapipe&#xa;2       KiB     initscripts-functions&#xa;2       KiB     init-pp&#xa;2       KiB     ccsp-mta-agent-ccsp&#xa;2       KiB     ccsp-cm-agent-ccsp&#xa;2       KiB     cable-netdev-init&#xa;1       KiB     systemd-serialgetty&#xa;1       KiB     openvswitch-testcontroller&#xa;1       KiB     openssl&#xa;1       KiB     network&#xa;1       KiB     moca-netdev-mod&#xa;0       KiB     version-puma7-atom&#xa;0       KiB     util-linux&#xa;0       KiB     toe-mod&#xa;0       KiB     system-monitor-mod&#xa;0       KiB     systemd-compat-units&#xa;0       KiB     synopsysgbe-mod&#xa;0       KiB     swapi-mod&#xa;0       KiB     sgc-mod&#xa;0       KiB     sec-headers&#xa;0       KiB     ppdrv-mod&#xa;0       KiB     pdspdrv-mod&#xa;0       KiB     packagegroup-rdk-oss-broadband&#xa;0       KiB     packagegroup-rdk-ccsp-broadband&#xa;0       KiB     packagegroup-machine-base&#xa;0       KiB     packagegroup-lxc-secure-containers&#xa;0       KiB     packagegroup-inangoplug&#xa;0       KiB     packagegroup-distro-base&#xa;0       KiB     packagegroup-core-boot&#xa;0       KiB     packagegroup-cli-logger&#xa;0       KiB     packagegroup-base-usbhost&#xa;0       KiB     packagegroup-base-keyboard&#xa;0       KiB     packagegroup-base-ipv6&#xa;0       KiB     packagegroup-base-extended&#xa;0       KiB     packagegroup-base-acpi&#xa;0       KiB     packagegroup-base&#xa;0       KiB     os-release&#xa;0       KiB     openvswitch-pki&#xa;0       KiB     natpt-service&#xa;0       KiB     mxl-mcast-helper-mod&#xa;0       KiB     mth-mod&#xa;0       KiB     mcs-mod&#xa;0       KiB     keymaps&#xa;0       KiB     kernel-modules&#xa;0       KiB     kernel-image-5.15.153-cougarmountain-cougarmountain&#xa;0       KiB     iptables-modules&#xa;0       KiB     init-cli&#xa;0       KiB     inangoplug-pp-acceleration-mod&#xa;0       KiB     hildrv-mod&#xa;0       KiB     gpy2xx-macsec-mod&#xa;0       KiB     ccsp-psm-ccsp&#xa;0       KiB     ccsp-p-and-m-ccsp&#xa;0       KiB     ccsp-misc-ccsp&#xa;0       KiB     ccsp-hotspot-kmod&#xa;0       KiB     ccsp-dmcli-ccsp&#xa;0       KiB     cable-netdev-mod" link="❯ cat ./buildhistory/images/puma7_atom/glibc/rdk-generic-broadband-image/installed-package-sizes.txt&#xa;5202    KiB     kernel-image-bzimage-5.15.153-cougarmountain-cougarmountain&#xa;3750    KiB     systemd&#xa;3639    KiB     openvswitch&#xa;3364    KiB     ccsp-webui-jst&#xa;2876    KiB     libglib-2.0-0&#xa;2846    KiB     utopia&#xa;2705    KiB     libc6&#xa;2602    KiB     ccsp-p-and-m&#xa;2579    KiB     libccsp-common0&#xa;2516    KiB     shared-mime-info&#xa;2017    KiB     libsyslog-ng-3.24-0&#xa;1984    KiB     libcrypto1.1&#xa;1698    KiB     udev&#xa;1672    KiB     net-snmp-mibs&#xa;1474    KiB     libunistring2&#xa;1389    KiB     libstdc++6&#xa;1363    KiB     ccsp-wifi-agent&#xa;1194    KiB     libnetsnmpmibs35&#xa;1140    KiB     kernel-module-hil-drv-5.15.153-cougarmountain-cougarmountain&#xa;1032    KiB     libxml2&#xa;917     KiB     quagga&#xa;905     KiB     libgnutls28&#xa;809     KiB     usp-pa&#xa;803     KiB     dibbler-server&#xa;794     KiB     cli-menus&#xa;755     KiB     libsqlite3-0&#xa;745     KiB     dibbler-client&#xa;730     KiB     lxc&#xa;723     KiB     libnetsnmp35&#xa;710     KiB     libgcrypt&#xa;689     KiB     rbus&#xa;635     KiB     libsystemd0&#xa;631     KiB     iproute2&#xa;629     KiB     tcpdump&#xa;625     KiB     sec-fw-common&#xa;623     KiB     bash&#xa;611     KiB     ccsp-snmp-pa-ccsp&#xa;609     KiB     kernel-module-pp-drv-5.15.153-cougarmountain-cougarmountain&#xa;601     KiB     busybox&#xa;586     KiB     syslog-ng&#xa;575     KiB     json-schema-validator&#xa;570     KiB     libboost-program-options1.72.0&#xa;520     KiB     kbd&#xa;513     KiB     ntp&#xa;507     KiB     libdw1&#xa;490     KiB     test-and-diagnostic-ccsp&#xa;487     KiB     openssl-bin&#xa;467     KiB     sysint-broadband&#xa;463     KiB     libpcre&#xa;460     KiB     ccsp-tr069-pa&#xa;451     KiB     iptables&#xa;450     KiB     harvester&#xa;434     KiB     rbus-core&#xa;418     KiB     nettle&#xa;410     KiB     telemetry&#xa;410     KiB     ebtables&#xa;407     KiB     mtd-utils-ubifs&#xa;399     KiB     libssl1.1&#xa;390     KiB     libext2fs2&#xa;383     KiB     libnetfilter-conntrack&#xa;378     KiB     jst&#xa;368     KiB     libnetsnmpagent35&#xa;352     KiB     libfdisk1&#xa;343     KiB     libcurl4&#xa;338     KiB     test-and-diagnostic&#xa;337     KiB     e2fsprogs&#xa;327     KiB     libintel-phy211-hal&#xa;324     KiB     ccsp-lm-lite&#xa;323     KiB     puma-power-app&#xa;322     KiB     dbus-1&#xa;310     KiB     heaptrack&#xa;307     KiB     libwebsockets16&#xa;305     KiB     ipset&#xa;299     KiB     libmount1&#xa;297     KiB     libextswitch-rtl&#xa;293     KiB     dropbear&#xa;293     KiB     dnsmasq&#xa;290     KiB     ccsp-tr069-pa-ccsp&#xa;283     KiB     libevent-2.1-7&#xa;272     KiB     pciutils-ids&#xa;271     KiB     ccsp-snmp-pa&#xa;266     KiB     ethtool&#xa;263     KiB     lighttpd&#xa;259     KiB     libblkid1&#xa;259     KiB     e2fsprogs-e2fsck&#xa;258     KiB     conntrack-tools&#xa;255     KiB     openvswitch-switch&#xa;255     KiB     libdbus-1-3&#xa;234     KiB     libpcap1&#xa;227     KiB     json-hal-lib&#xa;223     KiB     mxl-mcast-service&#xa;219     KiB     ncpu-exec&#xa;215     KiB     libupnp&#xa;207     KiB     kernel-module-openvswitch-5.15.153-cougarmountain-cougarmountain&#xa;202     KiB     ca-certificates&#xa;196     KiB     libavro23.0.0&#xa;192     KiB     demux-fw&#xa;190     KiB     libgmp3&#xa;189     KiB     libcrypt2&#xa;178     KiB     libsmartcols1&#xa;175     KiB     libjsoncpp22&#xa;175     KiB     kernel-module-dwc-eth-qos-gbe-5.15.153-cougarmountain-cougarmountain&#xa;174     KiB     ti-dhcpv6&#xa;170     KiB     mesh-agent&#xa;169     KiB     rdm&#xa;169     KiB     ccsp-moca&#xa;167     KiB     rtmessage&#xa;166     KiB     libudev1&#xa;165     KiB     iperf3&#xa;159     KiB     sec-lib&#xa;159     KiB     libuv1&#xa;153     KiB     usbutils&#xa;152     KiB     ccsp-mta-agent&#xa;151     KiB     parodus2ccsp&#xa;151     KiB     kernel-module-swapi-mod-5.15.153-cougarmountain-cougarmountain&#xa;150     KiB     ccsp-cm-agent&#xa;149     KiB     kernel-module-sec-kernel-5.15.153-cougarmountain-cougarmountain&#xa;148     KiB     kernel-module-dwc-eth-qos-5.15.153-cougarmountain-cougarmountain&#xa;146     KiB     gptfdisk&#xa;143     KiB     ccsp-hotspot&#xa;139     KiB     libnanomsg5&#xa;136     KiB     ccsp-adv-security&#xa;135     KiB     libgpg-error&#xa;131     KiB     libtirpc3&#xa;131     KiB     ccsp-misc&#xa;130     KiB     iw&#xa;128     KiB     atom-swdl-utility&#xa;126     KiB     libidn2-0&#xa;125     KiB     libunwind&#xa;125     KiB     ccsp-eth-agent&#xa;124     KiB     ovs-agent&#xa;123     KiB     libtinfo5&#xa;121     KiB     kernel-5.15.153-cougarmountain-cougarmountain&#xa;121     KiB     iproute2-ss&#xa;117     KiB     libnl-3-200&#xa;117     KiB     libexpat1&#xa;116     KiB     ccsp-xdns&#xa;115     KiB     util-linux-fdisk&#xa;114     KiB     curl&#xa;112     KiB     yajl&#xa;110     KiB     libgcc1&#xa;110     KiB     kmod&#xa;108     KiB     log4c&#xa;108     KiB     ccsp-home-security&#xa;107     KiB     rdk-logger&#xa;107     KiB     kernel-module-phy2xx-macsec-5.15.153-cougarmountain-cougarmountain&#xa;107     KiB     e2fsprogs-mke2fs&#xa;107     KiB     ccsp-psm&#xa;106     KiB     util-linux-sfdisk&#xa;106     KiB     libnopoll0&#xa;102     KiB     rfc&#xa;102     KiB     libbreakpadwrapper0&#xa;101     KiB     liblzo2-2&#xa;101     KiB     extswitch&#xa;98      KiB     rdkb-mta-hal&#xa;95      KiB     shadow-base&#xa;94      KiB     ucresolv&#xa;94      KiB     parodus&#xa;94      KiB     iperf2&#xa;94      KiB     ccsp-cr&#xa;93      KiB     rdkb-vlan-hal&#xa;93      KiB     pam-plugin-unix&#xa;91      KiB     ccsp-gwprovapp-ethwan&#xa;90      KiB     util-linux-blkid&#xa;90      KiB     libelf1&#xa;89      KiB     rdkb-cable-modem-hal&#xa;88      KiB     rdkb-ethsw-hal&#xa;88      KiB     ccsp-xconf&#xa;86      KiB     libusb-1.0-0&#xa;86      KiB     libmosquitto1&#xa;85      KiB     kernel-module-fat-5.15.153-cougarmountain-cougarmountain&#xa;81      KiB     libextswitch-lantiq&#xa;81      KiB     acpid&#xa;78      KiB     libz1&#xa;77      KiB     ccsp-epon-agent&#xa;75      KiB     ovs-brcompat&#xa;74      KiB     libcares2&#xa;74      KiB     dhcpc-plugin-v6&#xa;73      KiB     libpam&#xa;73      KiB     libmoca-api20&#xa;73      KiB     fcgi&#xa;71      KiB     rdkb-moca-hal&#xa;70      KiB     slibc&#xa;70      KiB     libsafec-3.5.1-3&#xa;66      KiB     util-linux-lsipc&#xa;66      KiB     libwebconfig-framework0&#xa;66      KiB     libkmod2&#xa;66      KiB     libcap-bin&#xa;66      KiB     kernel-module-libcomposite-5.15.153-cougarmountain-cougarmountain&#xa;65      KiB     pp-fw&#xa;65      KiB     ccsp-dmcli&#xa;63      KiB     logrotate&#xa;63      KiB     kernel-module-usb-f-mass-storage-5.15.153-cougarmountain-cougarmountain&#xa;62      KiB     ccsp-gwprovapp&#xa;60      KiB     dca&#xa;58      KiB     util-linux-su&#xa;58      KiB     util-linux-runuser&#xa;58      KiB     libtinyxml2.6.2&#xa;58      KiB     libjson-c5&#xa;56      KiB     ez-ipupdate&#xa;55      KiB     rdkb-platform-hal&#xa;54      KiB     ti-udhcp&#xa;54      KiB     libev4&#xa;53      KiB     libhal-wifi0&#xa;53      KiB     intelce-nvram-mngr&#xa;51      KiB     util-linux-findmnt&#xa;51      KiB     kernel-module-dpd-netdev-5.15.153-cougarmountain-cougarmountain&#xa;50      KiB     util-linux-agetty&#xa;50      KiB     inangoplug-rsc&#xa;49      KiB     inangoplug-chandler&#xa;48      KiB     kernel-module-pdsp-drv-5.15.153-cougarmountain-cougarmountain&#xa;47      KiB     cjson&#xa;46      KiB     libpci3&#xa;46      KiB     libjansson4&#xa;45      KiB     kernel-module-configfs-5.15.153-cougarmountain-cougarmountain&#xa;45      KiB     dhcpc-plugin-v4&#xa;44      KiB     interface-monitor&#xa;43      KiB     rpc-management&#xa;43      KiB     libcap2&#xa;43      KiB     intelce-icc&#xa;43      KiB     arm-cli&#xa;42      KiB     util-linux-mount&#xa;42      KiB     libpopt0&#xa;42      KiB     inangoplug-mngm&#xa;41      KiB     trusted-store-lib&#xa;40      KiB     kernel-module-toe-drv-5.15.153-cougarmountain-cougarmountain&#xa;40      KiB     intelce-logger&#xa;39      KiB     smcroute&#xa;39      KiB     kernel-module-sgc-drv-5.15.153-cougarmountain-cougarmountain&#xa;39      KiB     initscripts&#xa;38      KiB     util-linux-sulogin&#xa;38      KiB     util-linux-fsck&#xa;38      KiB     rpcbind&#xa;36      KiB     extswitch-init&#xa;35      KiB     libsyswrapper&#xa;35      KiB     kernel-module-moca-netdev-driver-5.15.153-cougarmountain-cougarmountain&#xa;34      KiB     util-linux-mkfs.cramfs&#xa;34      KiB     util-linux-last&#xa;34      KiB     notify-comp&#xa;34      KiB     lighttpd-module-openssl&#xa;34      KiB     kernel-module-mcast-helper-5.15.153-cougarmountain-cougarmountain&#xa;33      KiB     api-proxy&#xa;31      KiB     pcregrep&#xa;31      KiB     libe2p2&#xa;30      KiB     util-linux-uuidd&#xa;30      KiB     util-linux-unshare&#xa;30      KiB     util-linux-umount&#xa;30      KiB     util-linux-rfkill&#xa;30      KiB     util-linux-fsck.cramfs&#xa;30      KiB     rdkb-dhcp-hal&#xa;30      KiB     lighttpd-module-ssi&#xa;30      KiB     lighttpd-module-dirlisting&#xa;29      KiB     libmsgpackc2&#xa;29      KiB     kernel-module-usb-f-ncm-5.15.153-cougarmountain-cougarmountain&#xa;28      KiB     kernel-module-wbsd-5.15.153-cougarmountain-cougarmountain&#xa;28      KiB     kernel-module-cable-netdev-5.15.153-cougarmountain-cougarmountain&#xa;27      KiB     watchdog&#xa;27      KiB     puma-tzctl&#xa;27      KiB     intelce-logger-daemon&#xa;26      KiB     ssmtp&#xa;26      KiB     libuuid1&#xa;26      KiB     libnl-genl-3-200&#xa;26      KiB     libmnl0&#xa;26      KiB     libffi7&#xa;26      KiB     hal-gwprovappabs&#xa;26      KiB     e2fsprogs-dumpe2fs&#xa;25      KiB     wdmp-c&#xa;25      KiB     sec-pm-daemon&#xa;25      KiB     libnfnetlink0&#xa;25      KiB     libnetfilter-queue1&#xa;25      KiB     libatomic1&#xa;25      KiB     kernel-module-system-monitor-5.15.153-cougarmountain-cougarmountain&#xa;25      KiB     gim-proxy&#xa;25      KiB     bridge-utils&#xa;24      KiB     mocad-proxy&#xa;24      KiB     libprivilege0&#xa;23      KiB     pciutils&#xa;23      KiB     libpam-runtime&#xa;23      KiB     kernel-module-ovs-hw-acceleration-5.15.153-cougarmountain-cougarmountain&#xa;22      KiB     spawn-fcgi&#xa;22      KiB     rpcinfo&#xa;22      KiB     lxccpid&#xa;22      KiB     lighttpd-module-cgi&#xa;22      KiB     lighttpd-module-accesslog&#xa;22      KiB     libss2&#xa;22      KiB     libparodus&#xa;22      KiB     kernel-module-u-ether-5.15.153-cougarmountain-cougarmountain&#xa;22      KiB     e2fsprogs-badblocks&#xa;21      KiB     wrp-c&#xa;21      KiB     util-linux-addpart&#xa;21      KiB     openssl-conf&#xa;21      KiB     netip-sec-server&#xa;21      KiB     ncurses-terminfo-base&#xa;21      KiB     ncp&#xa;20      KiB     kernel-module-pch-dma-5.15.153-cougarmountain-cougarmountain&#xa;19      KiB     kernel-module-vfat-5.15.153-cougarmountain-cougarmountain&#xa;18      KiB     util-linux-readprofile&#xa;18      KiB     powermgr&#xa;18      KiB     netbase&#xa;18      KiB     lighttpd-module-authn-file&#xa;18      KiB     lighttpd-module-auth&#xa;18      KiB     libnetfilter-cttimeout1&#xa;18      KiB     liblinenoise1.0&#xa;18      KiB     kernel-module-mcs-drv-5.15.153-cougarmountain-cougarmountain&#xa;17      KiB     pam-plugin-limits&#xa;17      KiB     pam-plugin-lastlog&#xa;17      KiB     pam-plugin-env&#xa;17      KiB     libattr1&#xa;17      KiB     gwcommonutils&#xa;16      KiB     puma-startup&#xa;16      KiB     net-snmp-server-snmpd&#xa;14      KiB     util-linux-switch-root&#xa;14      KiB     util-linux-setarch&#xa;14      KiB     memstress&#xa;14      KiB     lighttpd-module-secdownload&#xa;14      KiB     kernel-module-mth-macdb-5.15.153-cougarmountain-cougarmountain&#xa;14      KiB     intelce-cc-init-once&#xa;14      KiB     inangoplug-rsc-proxy&#xa;14      KiB     cjwt&#xa;13      KiB     util-linux-uuidgen&#xa;13      KiB     util-linux-pivot-root&#xa;13      KiB     util-linux-nologin&#xa;13      KiB     util-linux-mountpoint&#xa;13      KiB     util-linux-mkfs&#xa;13      KiB     util-linux-getopt&#xa;13      KiB     uipc&#xa;13      KiB     tlv-parser&#xa;13      KiB     system-utils&#xa;13      KiB     sec-pm-notifier&#xa;13      KiB     sched&#xa;13      KiB     rdkb-common-hal&#xa;13      KiB     puma7-reboot-app&#xa;13      KiB     phy-sw-checker&#xa;13      KiB     pam-plugin-warn&#xa;13      KiB     pam-plugin-shells&#xa;13      KiB     pam-plugin-securetty&#xa;13      KiB     pam-plugin-rootok&#xa;13      KiB     pam-plugin-permit&#xa;13      KiB     pam-plugin-nologin&#xa;13      KiB     pam-plugin-motd&#xa;13      KiB     pam-plugin-mail&#xa;13      KiB     pam-plugin-group&#xa;13      KiB     pam-plugin-faildelay&#xa;13      KiB     pam-plugin-deny&#xa;13      KiB     ntp-tickadj&#xa;13      KiB     mxl-mcast-libfapi&#xa;13      KiB     mxl-mcast-cli&#xa;13      KiB     lighttpd-module-staticfile&#xa;13      KiB     lighttpd-module-setenv&#xa;13      KiB     lighttpd-module-rewrite&#xa;13      KiB     lighttpd-module-redirect&#xa;13      KiB     lighttpd-module-indexfile&#xa;13      KiB     lighttpd-module-access&#xa;13      KiB     libtrower-base64-1.0.0&#xa;13      KiB     libtime-capture0&#xa;13      KiB     libpcreposix0&#xa;13      KiB     libintel-phy11g-hal&#xa;13      KiB     libhal-pon0&#xa;13      KiB     libhal-msomgmt0&#xa;13      KiB     libcom-err2&#xa;13      KiB     libcimplog1.0.0&#xa;13      KiB     intelce-shmdb&#xa;13      KiB     gw-lan-refresh&#xa;13      KiB     gw-ipc-svr&#xa;13      KiB     extswitch-ctrl&#xa;13      KiB     dhcp-utils&#xa;13      KiB     dhcp6capi-lib&#xa;13      KiB     dhcp4capi-lib&#xa;13      KiB     dcmjsonparser&#xa;12      KiB     kernel-module-g-mass-storage-5.15.153-cougarmountain-cougarmountain&#xa;12      KiB     kernel-module-brmtumod-5.15.153-cougarmountain-cougarmountain&#xa;12      KiB     ccsp-lm-lite-ccsp&#xa;11      KiB     kernel-module-puma7-pp-init-5.15.153-cougarmountain-cougarmountain&#xa;10      KiB     volatile-binds&#xa;10      KiB     kernel-module-g-ncm-5.15.153-cougarmountain-cougarmountain&#xa;8       KiB     testmode&#xa;8       KiB     overlay-rootfs&#xa;7       KiB     ccsp-moca-ccsp&#xa;6       KiB     nvram&#xa;6       KiB     kernel-module-nsh-5.15.153-cougarmountain-cougarmountain&#xa;6       KiB     kernel-module-nlmon-5.15.153-cougarmountain-cougarmountain&#xa;5       KiB     system-monitor&#xa;5       KiB     sysd-init-scripts&#xa;5       KiB     sec-linux-kernel-p7&#xa;5       KiB     rpc-management-ifconfig&#xa;5       KiB     load-modules&#xa;5       KiB     kernel-module-mdio-bitbang-5.15.153-cougarmountain-cougarmountain&#xa;4       KiB     rpc-management-rpcbind&#xa;4       KiB     kernel-module-vport-gre-5.15.153-cougarmountain-cougarmountain&#xa;4       KiB     kernel-module-mpls-gso-5.15.153-cougarmountain-cougarmountain&#xa;4       KiB     gtest-apps&#xa;4       KiB     ccsp-cr-ccsp&#xa;4       KiB     ccsp-common-startup&#xa;4       KiB     base-files&#xa;3       KiB     mount-nvram&#xa;3       KiB     kernel-module-crc8-5.15.153-cougarmountain-cougarmountain&#xa;3       KiB     kernel-module-cordic-5.15.153-cougarmountain-cougarmountain&#xa;3       KiB     kernel-crash-logger&#xa;3       KiB     inangoplug-rsc-init-atom-systemd&#xa;3       KiB     datapipe-mod&#xa;2       KiB     shadow-securetty&#xa;2       KiB     sdk-software-version-info&#xa;2       KiB     puma7-bootcounter&#xa;2       KiB     load-datapipe&#xa;2       KiB     initscripts-functions&#xa;2       KiB     init-pp&#xa;2       KiB     ccsp-mta-agent-ccsp&#xa;2       KiB     ccsp-cm-agent-ccsp&#xa;2       KiB     cable-netdev-init&#xa;1       KiB     systemd-serialgetty&#xa;1       KiB     openvswitch-testcontroller&#xa;1       KiB     openssl&#xa;1       KiB     network&#xa;1       KiB     moca-netdev-mod&#xa;0       KiB     version-puma7-atom&#xa;0       KiB     util-linux&#xa;0       KiB     toe-mod&#xa;0       KiB     system-monitor-mod&#xa;0       KiB     systemd-compat-units&#xa;0       KiB     synopsysgbe-mod&#xa;0       KiB     swapi-mod&#xa;0       KiB     sgc-mod&#xa;0       KiB     sec-headers&#xa;0       KiB     ppdrv-mod&#xa;0       KiB     pdspdrv-mod&#xa;0       KiB     packagegroup-rdk-oss-broadband&#xa;0       KiB     packagegroup-rdk-ccsp-broadband&#xa;0       KiB     packagegroup-machine-base&#xa;0       KiB     packagegroup-lxc-secure-containers&#xa;0       KiB     packagegroup-inangoplug&#xa;0       KiB     packagegroup-distro-base&#xa;0       KiB     packagegroup-core-boot&#xa;0       KiB     packagegroup-cli-logger&#xa;0       KiB     packagegroup-base-usbhost&#xa;0       KiB     packagegroup-base-keyboard&#xa;0       KiB     packagegroup-base-ipv6&#xa;0       KiB     packagegroup-base-extended&#xa;0       KiB     packagegroup-base-acpi&#xa;0       KiB     packagegroup-base&#xa;0       KiB     os-release&#xa;0       KiB     openvswitch-pki&#xa;0       KiB     natpt-service&#xa;0       KiB     mxl-mcast-helper-mod&#xa;0       KiB     mth-mod&#xa;0       KiB     mcs-mod&#xa;0       KiB     keymaps&#xa;0       KiB     kernel-modules&#xa;0       KiB     kernel-image-5.15.153-cougarmountain-cougarmountain&#xa;0       KiB     iptables-modules&#xa;0       KiB     init-cli&#xa;0       KiB     inangoplug-pp-acceleration-mod&#xa;0       KiB     hildrv-mod&#xa;0       KiB     gpy2xx-macsec-mod&#xa;0       KiB     ccsp-psm-ccsp&#xa;0       KiB     ccsp-p-and-m-ccsp&#xa;0       KiB     ccsp-misc-ccsp&#xa;0       KiB     ccsp-hotspot-kmod&#xa;0       KiB     ccsp-dmcli-ccsp&#xa;0       KiB     cable-netdev-mod" id="ywbTh_9rI6-NhOVkDmH1-1">
          <mxCell style="text;whiteSpace=wrap;fontFamily=Courier New;fontStyle=1" vertex="1" parent="1">
            <mxGeometry x="40" y="10" width="1010" height="6660" as="geometry" />
          </mxCell>
        </UserObject>
      </root>
    </mxGraphModel>
  </diagram>
  <diagram id="ipm8QUmUN-EhfnyAa55f" name="package-removal">
    <mxGraphModel dx="1798" dy="984" grid="1" gridSize="10" guides="1" tooltips="1" connect="1" arrows="1" fold="1" page="1" pageScale="1" pageWidth="1100" pageHeight="850" math="0" shadow="0">
      <root>
        <mxCell id="0" />
        <mxCell id="1" parent="0" />
        <mxCell id="YhHfq2oiS_ui-LRZWFkM-1" value="&lt;div&gt;Package Removal (Experimntal / and only if required)&lt;/div&gt;&lt;div&gt;&lt;br&gt;&lt;/div&gt;&lt;div&gt;1) DISTRO_FEATURES&lt;/div&gt;&lt;div&gt;2) Remove specific packages from package group / from image recipe&lt;/div&gt;&lt;div&gt;3) Remove meta-layer&lt;/div&gt;&lt;div&gt;4) bbmask recipes&lt;/div&gt;&lt;div&gt;5) Systemd sysvinit conversion&lt;/div&gt;&lt;div&gt;&lt;br&gt;&lt;/div&gt;&lt;div&gt;&lt;br&gt;&lt;/div&gt;&lt;div&gt;packages can only be removed once their dependency chain is understood e.g.&lt;/div&gt;&lt;div&gt;&lt;br&gt;&lt;/div&gt;&lt;div&gt;openvswitch can be removed if inangoplug can be removed&lt;/div&gt;&lt;div&gt;&lt;br&gt;&lt;/div&gt;&lt;div&gt;inangoplug removal by distro feature does not work. removing the meta-inangoplug layer does allow inango plug and openvswitch removal&lt;/div&gt;&lt;div&gt;&lt;br&gt;&lt;/div&gt;&lt;div&gt;shared-mime-info can not be immediately removed because it is required by libglib which is required by dbus which is required by systemd&lt;/div&gt;&lt;div&gt;&lt;br&gt;&lt;/div&gt;&lt;div&gt;webui-jst can be removed (then also lighttpd / modules / spawn-fcgi)&lt;/div&gt;&lt;div&gt;&lt;br&gt;&lt;/div&gt;&lt;div&gt;usp-pa can be removed which then can also remove (libsqlite / libmosquitto)&amp;nbsp;&lt;/div&gt;&lt;div&gt;&lt;br&gt;&lt;/div&gt;&lt;div&gt;lxc&lt;/div&gt;&lt;div&gt;&lt;br&gt;&lt;/div&gt;&lt;div&gt;wifiagent/wifihal&lt;/div&gt;&lt;div&gt;&lt;br&gt;&lt;/div&gt;&lt;div&gt;dibbler-client/server&lt;/div&gt;&lt;div&gt;&lt;br&gt;&lt;/div&gt;&lt;div&gt;can snmp be removed&lt;/div&gt;&lt;div&gt;&lt;br&gt;&lt;/div&gt;&lt;div&gt;debug facilities (e.g. tcpdump)&lt;/div&gt;&lt;div&gt;&lt;br&gt;&lt;/div&gt;" style="rounded=0;whiteSpace=wrap;html=1;verticalAlign=top;align=left;strokeColor=light-dark(#b1aaaa, #ededed);" vertex="1" parent="1">
          <mxGeometry x="40" y="40" width="850" height="480" as="geometry" />
        </mxCell>
      </root>
    </mxGraphModel>
  </diagram>
</mxfile>
